<svg width="175" height="38" viewBox="0 0 175 38" fill="none" xmlns="http://www.w3.org/2000/svg">
<path d="M54.839 15.25L53.789 27H50.564L52.139 10.35H56.639L60.889 22.3L65.014 10.35H69.514L71.039 27H67.789L66.639 15.3L62.239 27.175L59.264 27.45L54.839 15.25ZM75.6673 32.6C74.9006 32.6 74.1006 32.4167 73.2673 32.05L73.7923 29.15C74.4256 29.4667 74.959 29.625 75.3923 29.625C75.909 29.625 76.2923 29.4583 76.5423 29.125C76.809 28.7917 77.0923 28.2083 77.3923 27.375L72.3673 14.175L76.0173 13.875L79.0923 23.1L81.9423 14.125H85.4173C84.3506 17.3583 83.2256 20.5417 82.0423 23.675C80.8756 26.8083 79.9673 28.9583 79.3173 30.125C78.8506 30.9583 78.3256 31.575 77.7423 31.975C77.1756 32.3917 76.484 32.6 75.6673 32.6ZM87.3921 14.125H90.8421V16.35C91.3754 15.4667 91.9921 14.8167 92.6921 14.4C93.3921 13.9833 94.2088 13.775 95.1421 13.775C96.5254 13.775 97.6088 14.1917 98.3921 15.025C99.1754 15.8417 99.5671 16.9833 99.5671 18.45V27H96.0421V19C96.0421 18.3333 95.8754 17.8167 95.5421 17.45C95.2088 17.0667 94.7588 16.875 94.1921 16.875C93.5254 16.875 92.8921 17.125 92.2921 17.625C91.6921 18.125 91.2338 18.7583 90.9171 19.525V27H87.3921V14.125ZM107.181 27.375C105.981 27.375 105.047 27.075 104.381 26.475C103.731 25.8583 103.406 24.9917 103.406 23.875V17.15H101.406V14.125H103.406V11.375C104.589 11.175 105.756 11.025 106.906 10.925V14.125H110.156V17.15H106.906V23.225C106.906 23.575 107.006 23.8417 107.206 24.025C107.422 24.2083 107.722 24.3 108.106 24.3C108.572 24.3 109.106 24.1917 109.706 23.975L110.481 26.625C109.414 27.125 108.314 27.375 107.181 27.375ZM112.978 8.75H116.503V16C117.02 15.2333 117.611 14.675 118.278 14.325C118.945 13.9583 119.711 13.775 120.578 13.775C121.961 13.775 123.045 14.1917 123.828 15.025C124.611 15.8417 125.003 16.9833 125.003 18.45V27H121.478V19C121.478 18.3333 121.311 17.8167 120.978 17.45C120.645 17.0667 120.195 16.875 119.628 16.875C119.011 16.875 118.42 17.0917 117.853 17.525C117.303 17.9417 116.853 18.5 116.503 19.2V27H112.978V8.75ZM135.789 27.325C134.156 27.325 132.714 26.9667 131.464 26.25C130.214 25.5333 129.239 24.525 128.539 23.225C127.856 21.925 127.514 20.4333 127.514 18.75C127.514 17.05 127.856 15.55 128.539 14.25C129.222 12.95 130.189 11.9417 131.439 11.225C132.689 10.5083 134.139 10.15 135.789 10.15C137.422 10.15 138.864 10.5083 140.114 11.225C141.364 11.925 142.331 12.9167 143.014 14.2C143.697 15.4833 144.039 16.9667 144.039 18.65C144.039 20.3667 143.697 21.8833 143.014 23.2C142.331 24.5 141.364 25.5167 140.114 26.25C138.864 26.9667 137.422 27.325 135.789 27.325ZM135.789 24.15C137.156 24.15 138.247 23.6583 139.064 22.675C139.897 21.6917 140.314 20.3833 140.314 18.75C140.314 17.6833 140.122 16.7417 139.739 15.925C139.372 15.0917 138.839 14.4583 138.139 14.025C137.456 13.575 136.672 13.35 135.789 13.35C134.906 13.35 134.114 13.575 133.414 14.025C132.731 14.4583 132.197 15.0917 131.814 15.925C131.447 16.7417 131.264 17.6833 131.264 18.75C131.264 19.8167 131.447 20.7583 131.814 21.575C132.197 22.3917 132.731 23.025 133.414 23.475C134.097 23.925 134.889 24.15 135.789 24.15ZM146.669 14.125H150.119V16.35C150.653 15.4667 151.269 14.8167 151.969 14.4C152.669 13.9833 153.486 13.775 154.419 13.775C155.803 13.775 156.886 14.1917 157.669 15.025C158.453 15.8417 158.844 16.9833 158.844 18.45V27H155.319V19C155.319 18.3333 155.153 17.8167 154.819 17.45C154.486 17.0667 154.036 16.875 153.469 16.875C152.803 16.875 152.169 17.125 151.569 17.625C150.969 18.125 150.511 18.7583 150.194 19.525V27H146.669V14.125ZM168.174 27.375C166.091 27.375 164.449 26.775 163.249 25.575C162.066 24.375 161.474 22.7083 161.474 20.575C161.474 19.1917 161.732 17.9917 162.249 16.975C162.766 15.9417 163.491 15.15 164.424 14.6C165.374 14.05 166.482 13.775 167.749 13.775C169.616 13.775 171.049 14.375 172.049 15.575C173.049 16.775 173.549 18.5083 173.549 20.775C173.549 21.1583 173.541 21.4417 173.524 21.625H165.024C165.191 22.5083 165.574 23.1833 166.174 23.65C166.774 24.1 167.582 24.325 168.599 24.325C169.216 24.325 169.857 24.25 170.524 24.1C171.191 23.9333 171.774 23.7167 172.274 23.45L172.849 26.275C172.182 26.625 171.441 26.8917 170.624 27.075C169.824 27.275 169.007 27.375 168.174 27.375ZM170.174 18.975C170.124 18.2583 169.874 17.6917 169.424 17.275C168.974 16.8417 168.374 16.625 167.624 16.625C166.907 16.625 166.316 16.8333 165.849 17.25C165.399 17.6667 165.116 18.2417 164.999 18.975H170.174Z" fill="#4A495E"/>
<path fill-rule="evenodd" clip-rule="evenodd" d="M28.2338 6.41283L21.1358 7.61182L16.461 2.07066C15.1277 0.490275 13.0431 -0.266742 10.9924 0.084771L6.42739 0.867267C4.37669 1.21878 2.67148 2.62542 1.95408 4.55732L0.357094 8.85787C-0.360306 10.7898 0.0191003 12.9534 1.35239 14.5338L5.9746 20.0126L3.46497 26.7114C2.74197 28.6413 3.1151 30.806 4.44381 32.3902L7.40161 35.9166C8.73032 37.5008 10.8127 38.2637 12.8644 37.918L17.4317 37.1485C19.4834 36.8028 21.1927 35.401 21.9157 33.4711L24.4164 26.7961L31.5479 25.5914C33.5995 25.2449 35.3082 23.8423 36.0304 21.9122L37.638 17.6155C38.3602 15.6854 37.9861 13.5208 36.6567 11.9372L33.6974 8.41195C32.3681 6.82834 30.2853 6.06628 28.2338 6.41283ZM31.6594 20.3129L33.267 16.0162C33.4115 15.6302 33.3367 15.1973 33.0708 14.8805L30.1115 11.3553C29.8456 11.0386 29.4291 10.8862 29.0188 10.9555L24.5881 11.7039L26.2211 13.6396C27.3424 14.9687 27.789 16.7102 27.4761 18.3795C27.4158 18.7049 27.3268 19.0276 27.2083 19.3439L26.94 20.0599L26.6307 20.8928L21.3218 21.79L22.5674 18.4651L22.8415 17.7268C22.8637 17.6671 22.8807 17.6062 22.8925 17.5448C22.9521 17.2145 22.8633 16.8706 22.6422 16.6071L20.3708 13.8989L19.6255 13.0156C19.6031 12.9927 19.5799 12.9708 19.5559 12.9499L15.7942 8.4768L15.7961 8.47647L15.0987 7.64986L14.4984 6.93602L14.4983 6.93813L12.8823 5.02271C12.6157 4.70663 12.1988 4.55523 11.7886 4.62553L7.22363 5.40802C6.81349 5.47833 6.47245 5.75965 6.32897 6.14603L4.73198 10.4466C4.5885 10.833 4.66438 11.2657 4.93104 11.5818L7.83649 15.0257L8.73326 12.6289C8.83558 12.3554 8.9577 12.0926 9.09779 11.8418C9.9424 10.2994 11.4634 9.20651 13.2415 8.9069L14.7904 8.64592L18.2706 12.7711L14.0007 13.4924C13.655 13.5507 13.3581 13.759 13.1867 14.0539C13.1645 14.0962 13.1448 14.14 13.1278 14.1854L11.4635 18.6278C11.4602 18.6402 11.457 18.6527 11.4541 18.6651L9.39819 24.1422L9.3978 24.1417L9.02847 25.1271L7.83524 28.3126C7.69064 28.6985 7.76526 29.1315 8.031 29.4483L10.9888 32.9748C11.2545 33.2916 11.671 33.4442 12.0814 33.375L16.6486 32.6055C17.059 32.5363 17.4008 32.256 17.5454 31.87L19.1105 27.6923L16.5299 28.1283C14.4783 28.4748 12.3956 27.7127 11.0662 26.1291L10.0438 24.9112L11.9124 19.8569L14.6912 23.1507C14.9578 23.4668 15.3748 23.6182 15.7849 23.5479L20.3499 22.7654C20.3577 22.7641 20.3654 22.7626 20.3732 22.7612L26.2935 21.8009L26.2924 21.8039L26.7063 21.734L27.8674 21.5457L27.8665 21.538L30.7629 21.0487C31.1732 20.9794 31.515 20.6989 31.6594 20.3129Z" fill="#4A495E"/>
<path d="M14.3562 16.5725L16.2496 15.2209C16.0276 15.5781 15.8656 15.9474 15.7627 16.3142C15.2805 16.3764 14.8056 16.4668 14.3562 16.5725Z" fill="#4A495E"/>
<path d="M13.0357 17.874C13.2441 17.7997 13.4722 17.7246 13.7151 17.652C14.8687 18.8495 16.0515 19.4044 17.144 19.5292C17.1901 19.5436 17.2373 19.5567 17.2856 19.5685C17.3449 19.5831 17.4044 19.585 17.4612 19.5762C17.1444 19.8998 16.6736 20.1904 16.0032 20.3767L13.8951 19.5859C13.1535 19.3078 12.8402 18.5358 13.0357 17.874Z" fill="#4A495E"/>
<path d="M14.7109 17.3917C15.0084 17.325 15.3162 17.2661 15.6282 17.219C15.6242 17.5484 15.6722 17.8701 15.7729 18.1659C15.4278 17.9739 15.0721 17.7201 14.7109 17.3917Z" fill="#4A495E"/>
<path d="M16.519 17.1208C16.4716 17.896 16.7943 18.4564 17.3391 18.6669C17.4336 18.6752 17.5262 18.6793 17.6167 18.6797C17.7404 18.6802 17.8611 18.6739 17.9784 18.6614C18.1524 17.9117 17.7823 17.2682 17.2587 17.1046C17.2567 17.104 17.2548 17.1034 17.2529 17.1028C17.0146 17.0977 16.7692 17.1041 16.519 17.1208Z" fill="#4A495E"/>
<path d="M18.6952 17.3141C18.8503 17.6507 18.922 18.0335 18.9027 18.422C19.2414 18.2778 19.527 18.0867 19.745 17.8849C19.7419 17.8822 19.7388 17.8796 19.7357 17.8768C19.4512 17.6233 19.098 17.4391 18.6952 17.3141Z" fill="#4A495E"/>
<path d="M19.8592 16.8769L19.5045 15.3107C19.3773 14.7489 18.9418 14.3651 18.4378 14.2494C18.4087 14.2874 18.3727 14.3213 18.3303 14.3493C17.5082 14.8912 16.9892 15.5719 16.7257 16.2313C17.8317 16.1872 18.9696 16.3321 19.8592 16.8769Z" fill="#4A495E"/>
<path d="M18.6376 19.4339C18.3696 19.98 17.9025 20.4713 17.2224 20.8341L18.6187 21.3579C19.6757 21.7544 20.7545 20.8296 20.5074 19.7387L20.2525 18.6133C19.8342 18.9716 19.2805 19.2737 18.6376 19.4339Z" fill="#4A495E"/>
</svg>
