<svg width="29" height="30" viewBox="0 0 29 30" fill="none" xmlns="http://www.w3.org/2000/svg">
<g clip-path="url(#clip0_1_203)">
<path d="M16.1667 20.0163H9.16666C8.85724 20.0163 8.56049 20.1392 8.3417 20.358C8.12291 20.5768 7.99999 20.8735 7.99999 21.1829C7.99999 21.4924 8.12291 21.7891 8.3417 22.0079C8.56049 22.2267 8.85724 22.3496 9.16666 22.3496H16.1667C16.4761 22.3496 16.7728 22.2267 16.9916 22.0079C17.2104 21.7891 17.3333 21.4924 17.3333 21.1829C17.3333 20.8735 17.2104 20.5768 16.9916 20.358C16.7728 20.1392 16.4761 20.0163 16.1667 20.0163ZM11.5 13.0163H13.8333C14.1427 13.0163 14.4395 12.8934 14.6583 12.6746C14.8771 12.4558 15 12.159 15 11.8496C15 11.5402 14.8771 11.2434 14.6583 11.0246C14.4395 10.8059 14.1427 10.6829 13.8333 10.6829H11.5C11.1906 10.6829 10.8938 10.8059 10.675 11.0246C10.4562 11.2434 10.3333 11.5402 10.3333 11.8496C10.3333 12.159 10.4562 12.4558 10.675 12.6746C10.8938 12.8934 11.1906 13.0163 11.5 13.0163ZM25.5 15.3496H22V4.8496C22.0008 4.64402 21.9473 4.44188 21.8448 4.26364C21.7424 4.0854 21.5947 3.93739 21.4167 3.8346C21.2393 3.73221 21.0381 3.6783 20.8333 3.6783C20.6285 3.6783 20.4273 3.73221 20.25 3.8346L16.75 5.84127L13.25 3.8346C13.0726 3.73221 12.8714 3.6783 12.6667 3.6783C12.4619 3.6783 12.2607 3.73221 12.0833 3.8346L8.58332 5.84127L5.08332 3.8346C4.90597 3.73221 4.70478 3.6783 4.49999 3.6783C4.2952 3.6783 4.09401 3.73221 3.91666 3.8346C3.73862 3.93739 3.5909 4.0854 3.48846 4.26364C3.38603 4.44188 3.33251 4.64402 3.33332 4.8496V23.5163C3.33332 24.4445 3.70207 25.3348 4.35845 25.9911C5.01483 26.6475 5.90506 27.0163 6.83332 27.0163H23.1667C24.0949 27.0163 24.9852 26.6475 25.6415 25.9911C26.2979 25.3348 26.6667 24.4445 26.6667 23.5163V16.5163C26.6667 16.2069 26.5437 15.9101 26.3249 15.6913C26.1062 15.4725 25.8094 15.3496 25.5 15.3496ZM6.83332 24.6829C6.5239 24.6829 6.22716 24.56 6.00836 24.3412C5.78957 24.1224 5.66666 23.8257 5.66666 23.5163V6.86794L7.99999 8.19794C8.18005 8.29198 8.38018 8.3411 8.58332 8.3411C8.78646 8.3411 8.98659 8.29198 9.16666 8.19794L12.6667 6.19127L16.1667 8.19794C16.3467 8.29198 16.5468 8.3411 16.75 8.3411C16.9531 8.3411 17.1533 8.29198 17.3333 8.19794L19.6667 6.86794V23.5163C19.6698 23.9143 19.7408 24.3088 19.8767 24.6829H6.83332ZM24.3333 23.5163C24.3333 23.8257 24.2104 24.1224 23.9916 24.3412C23.7728 24.56 23.4761 24.6829 23.1667 24.6829C22.8572 24.6829 22.5605 24.56 22.3417 24.3412C22.1229 24.1224 22 23.8257 22 23.5163V17.6829H24.3333V23.5163ZM16.1667 15.3496H9.16666C8.85724 15.3496 8.56049 15.4725 8.3417 15.6913C8.12291 15.9101 7.99999 16.2069 7.99999 16.5163C7.99999 16.8257 8.12291 17.1224 8.3417 17.3412C8.56049 17.56 8.85724 17.6829 9.16666 17.6829H16.1667C16.4761 17.6829 16.7728 17.56 16.9916 17.3412C17.2104 17.1224 17.3333 16.8257 17.3333 16.5163C17.3333 16.2069 17.2104 15.9101 16.9916 15.6913C16.7728 15.4725 16.4761 15.3496 16.1667 15.3496Z" fill="#E5EAFF"/>
</g>
<defs>
<clipPath id="clip0_1_203">
<rect width="29" height="29" fill="white" transform="translate(0 0.349609)"/>
</clipPath>
</defs>
</svg>
