<svg width="29" height="29" viewBox="0 0 29 29" fill="none" xmlns="http://www.w3.org/2000/svg">
<path d="M16.2 19.8014H9.00001C8.68175 19.8014 8.37652 19.9278 8.15148 20.1528C7.92644 20.3778 7.80001 20.683 7.80001 21.0012C7.80001 21.3194 7.92644 21.6246 8.15148 21.8496C8.37652 22.0746 8.68175 22.201 9.00001 22.201H16.2C16.5183 22.201 16.8235 22.0746 17.0485 21.8496C17.2736 21.6246 17.4 21.3194 17.4 21.0012C17.4 20.683 17.2736 20.3778 17.0485 20.1528C16.8235 19.9278 16.5183 19.8014 16.2 19.8014ZM11.4 12.6029H13.8C14.1183 12.6029 14.4235 12.4765 14.6485 12.2515C14.8736 12.0265 15 11.7213 15 11.4031C15 11.0849 14.8736 10.7797 14.6485 10.5547C14.4235 10.3297 14.1183 10.2033 13.8 10.2033H11.4C11.0817 10.2033 10.7765 10.3297 10.5515 10.5547C10.3264 10.7797 10.2 11.0849 10.2 11.4031C10.2 11.7213 10.3264 12.0265 10.5515 12.2515C10.7765 12.4765 11.0817 12.6029 11.4 12.6029ZM25.8 15.0024H22.2V4.20453C22.2008 3.99312 22.1458 3.78524 22.0404 3.60195C21.9351 3.41865 21.7831 3.26644 21.6 3.16074C21.4176 3.05544 21.2106 3 21 3C20.7894 3 20.5824 3.05544 20.4 3.16074L16.8 5.22433L13.2 3.16074C13.0176 3.05544 12.8106 3 12.6 3C12.3894 3 12.1824 3.05544 12 3.16074L8.40001 5.22433L4.80001 3.16074C4.61759 3.05544 4.41065 3 4.20001 3C3.98937 3 3.78243 3.05544 3.60001 3.16074C3.41688 3.26644 3.26495 3.41865 3.15958 3.60195C3.05422 3.78524 2.99917 3.99312 3.00001 4.20453V23.4007C3.00001 24.3553 3.37929 25.2708 4.05442 25.9458C4.72956 26.6208 5.64523 27 6.60001 27H23.4C24.3548 27 25.2705 26.6208 25.9456 25.9458C26.6207 25.2708 27 24.3553 27 23.4007V16.2021C27 15.8839 26.8736 15.5788 26.6485 15.3538C26.4235 15.1288 26.1183 15.0024 25.8 15.0024ZM6.60001 24.6005C6.28175 24.6005 5.97652 24.4741 5.75148 24.2491C5.52644 24.0241 5.40001 23.7189 5.40001 23.4007V6.28012L7.80001 7.64785C7.98521 7.74456 8.19106 7.79507 8.40001 7.79507C8.60895 7.79507 8.8148 7.74456 9.00001 7.64785L12.6 5.58426L16.2 7.64785C16.3852 7.74456 16.5911 7.79507 16.8 7.79507C17.009 7.79507 17.2148 7.74456 17.4 7.64785L19.8 6.28012V23.4007C19.8032 23.81 19.8763 24.2157 20.016 24.6005H6.60001ZM24.6 23.4007C24.6 23.7189 24.4736 24.0241 24.2485 24.2491C24.0235 24.4741 23.7183 24.6005 23.4 24.6005C23.0817 24.6005 22.7765 24.4741 22.5515 24.2491C22.3264 24.0241 22.2 23.7189 22.2 23.4007V17.4019H24.6V23.4007ZM16.2 15.0024H9.00001C8.68175 15.0024 8.37652 15.1288 8.15148 15.3538C7.92644 15.5788 7.80001 15.8839 7.80001 16.2021C7.80001 16.5203 7.92644 16.8255 8.15148 17.0505C8.37652 17.2755 8.68175 17.4019 9.00001 17.4019H16.2C16.5183 17.4019 16.8235 17.2755 17.0485 17.0505C17.2736 16.8255 17.4 16.5203 17.4 16.2021C17.4 15.8839 17.2736 15.5788 17.0485 15.3538C16.8235 15.1288 16.5183 15.0024 16.2 15.0024Z" fill="#FBB810"/>
</svg>
