<svg width="29" height="30" viewBox="0 0 29 30" fill="none" xmlns="http://www.w3.org/2000/svg">
<path d="M24.1666 2.76628H12.0833C11.1219 2.76628 10.1999 3.1482 9.52005 3.82802C8.84023 4.50784 8.45831 5.42987 8.45831 6.39128V14.8496C8.45831 15.811 8.84023 16.7331 9.52005 17.4129C10.1999 18.0927 11.1219 18.4746 12.0833 18.4746H24.1666C25.1281 18.4746 26.0501 18.0927 26.7299 17.4129C27.4097 16.7331 27.7916 15.811 27.7916 14.8496V6.39128C27.7916 5.42987 27.4097 4.50784 26.7299 3.82802C26.0501 3.1482 25.1281 2.76628 24.1666 2.76628ZM25.375 14.8496C25.375 15.1701 25.2477 15.4774 25.0211 15.704C24.7945 15.9306 24.4871 16.0579 24.1666 16.0579H12.0833C11.7628 16.0579 11.4555 15.9306 11.2289 15.704C11.0023 15.4774 10.875 15.1701 10.875 14.8496V6.39128C10.875 6.07081 11.0023 5.76347 11.2289 5.53686C11.4555 5.31025 11.7628 5.18295 12.0833 5.18295H24.1666C24.4871 5.18295 24.7945 5.31025 25.0211 5.53686C25.2477 5.76347 25.375 6.07081 25.375 6.39128V14.8496ZM21.1458 10.0163C20.6985 10.0178 20.2677 10.1858 19.9375 10.4875C19.6776 10.2514 19.3548 10.0957 19.0082 10.0396C18.6616 9.98346 18.3062 10.0292 17.9851 10.1713C17.664 10.3133 17.391 10.5456 17.1994 10.8398C17.0079 11.1341 16.9059 11.4777 16.9059 11.8288C16.9059 12.1799 17.0079 12.5235 17.1994 12.8177C17.391 13.112 17.664 13.3442 17.9851 13.4863C18.3062 13.6284 18.6616 13.6741 19.0082 13.618C19.3548 13.5618 19.6776 13.4062 19.9375 13.17C20.1557 13.3684 20.419 13.5104 20.7045 13.584C20.9901 13.6575 21.2893 13.6603 21.5761 13.592C21.863 13.5238 22.1288 13.3866 22.3507 13.1923C22.5725 12.998 22.7436 12.7526 22.8491 12.4772C22.9546 12.2019 22.9913 11.905 22.9561 11.6122C22.9208 11.3194 22.8147 11.0397 22.6469 10.7973C22.4791 10.5548 22.2547 10.3569 21.9931 10.2208C21.7315 10.0848 21.4407 10.0145 21.1458 10.0163ZM19.3333 20.8913C19.0128 20.8913 18.7055 21.0186 18.4789 21.2452C18.2523 21.4718 18.125 21.7791 18.125 22.0996V23.3079C18.125 23.6284 17.9977 23.9358 17.7711 24.1624C17.5445 24.389 17.2371 24.5163 16.9166 24.5163H4.83331C4.51284 24.5163 4.2055 24.389 3.97889 24.1624C3.75229 23.9358 3.62498 23.6284 3.62498 23.3079V18.4746H4.83331C5.15378 18.4746 5.46113 18.3473 5.68773 18.1207C5.91434 17.8941 6.04165 17.5868 6.04165 17.2663C6.04165 16.9458 5.91434 16.6385 5.68773 16.4119C5.46113 16.1853 5.15378 16.0579 4.83331 16.0579H3.62498V14.8496C3.62498 14.5291 3.75229 14.2218 3.97889 13.9952C4.2055 13.7686 4.51284 13.6413 4.83331 13.6413C5.15378 13.6413 5.46113 13.514 5.68773 13.2874C5.91434 13.0608 6.04165 12.7534 6.04165 12.4329C6.04165 12.1125 5.91434 11.8051 5.68773 11.5785C5.46113 11.3519 5.15378 11.2246 4.83331 11.2246C3.8719 11.2246 2.94987 11.6065 2.27005 12.2864C1.59023 12.9662 1.20831 13.8882 1.20831 14.8496V23.3079C1.20831 24.2694 1.59023 25.1914 2.27005 25.8712C2.94987 26.551 3.8719 26.9329 4.83331 26.9329H16.9166C17.8781 26.9329 18.8001 26.551 19.4799 25.8712C20.1597 25.1914 20.5416 24.2694 20.5416 23.3079V22.0996C20.5416 21.7791 20.4143 21.4718 20.1877 21.2452C19.9611 21.0186 19.6538 20.8913 19.3333 20.8913ZM7.24998 22.0996H8.45831C8.77878 22.0996 9.08613 21.9723 9.31273 21.7457C9.53934 21.5191 9.66665 21.2118 9.66665 20.8913C9.66665 20.5708 9.53934 20.2635 9.31273 20.0369C9.08613 19.8103 8.77878 19.6829 8.45831 19.6829H7.24998C6.92951 19.6829 6.62217 19.8103 6.39556 20.0369C6.16895 20.2635 6.04165 20.5708 6.04165 20.8913C6.04165 21.2118 6.16895 21.5191 6.39556 21.7457C6.62217 21.9723 6.92951 22.0996 7.24998 22.0996Z" fill="#EBEFFF"/>
</svg>
