<svg width="29" height="29" viewBox="0 0 29 29" fill="none" xmlns="http://www.w3.org/2000/svg">
<path d="M12.0833 15.7083H4.83333C4.51286 15.7083 4.20552 15.8356 3.97891 16.0622C3.75231 16.2889 3.625 16.5962 3.625 16.9167V24.1667C3.625 24.4871 3.75231 24.7945 3.97891 25.0211C4.20552 25.2477 4.51286 25.375 4.83333 25.375H12.0833C12.4038 25.375 12.7111 25.2477 12.9378 25.0211C13.1644 24.7945 13.2917 24.4871 13.2917 24.1667V16.9167C13.2917 16.5962 13.1644 16.2889 12.9378 16.0622C12.7111 15.8356 12.4038 15.7083 12.0833 15.7083ZM10.875 22.9583H6.04167V18.125H10.875V22.9583ZM24.1667 3.625H16.9167C16.5962 3.625 16.2889 3.75231 16.0622 3.97891C15.8356 4.20552 15.7083 4.51286 15.7083 4.83333V12.0833C15.7083 12.4038 15.8356 12.7111 16.0622 12.9378C16.2889 13.1644 16.5962 13.2917 16.9167 13.2917H24.1667C24.4871 13.2917 24.7945 13.1644 25.0211 12.9378C25.2477 12.7111 25.375 12.4038 25.375 12.0833V4.83333C25.375 4.51286 25.2477 4.20552 25.0211 3.97891C24.7945 3.75231 24.4871 3.625 24.1667 3.625V3.625ZM22.9583 10.875H18.125V6.04167H22.9583V10.875ZM24.1667 19.3333H21.75V16.9167C21.75 16.5962 21.6227 16.2889 21.3961 16.0622C21.1695 15.8356 20.8621 15.7083 20.5417 15.7083C20.2212 15.7083 19.9139 15.8356 19.6872 16.0622C19.4606 16.2889 19.3333 16.5962 19.3333 16.9167V19.3333H16.9167C16.5962 19.3333 16.2889 19.4606 16.0622 19.6872C15.8356 19.9139 15.7083 20.2212 15.7083 20.5417C15.7083 20.8621 15.8356 21.1695 16.0622 21.3961C16.2889 21.6227 16.5962 21.75 16.9167 21.75H19.3333V24.1667C19.3333 24.4871 19.4606 24.7945 19.6872 25.0211C19.9139 25.2477 20.2212 25.375 20.5417 25.375C20.8621 25.375 21.1695 25.2477 21.3961 25.0211C21.6227 24.7945 21.75 24.4871 21.75 24.1667V21.75H24.1667C24.4871 21.75 24.7945 21.6227 25.0211 21.3961C25.2477 21.1695 25.375 20.8621 25.375 20.5417C25.375 20.2212 25.2477 19.9139 25.0211 19.6872C24.7945 19.4606 24.4871 19.3333 24.1667 19.3333ZM12.0833 3.625H4.83333C4.51286 3.625 4.20552 3.75231 3.97891 3.97891C3.75231 4.20552 3.625 4.51286 3.625 4.83333V12.0833C3.625 12.4038 3.75231 12.7111 3.97891 12.9378C4.20552 13.1644 4.51286 13.2917 4.83333 13.2917H12.0833C12.4038 13.2917 12.7111 13.1644 12.9378 12.9378C13.1644 12.7111 13.2917 12.4038 13.2917 12.0833V4.83333C13.2917 4.51286 13.1644 4.20552 12.9378 3.97891C12.7111 3.75231 12.4038 3.625 12.0833 3.625V3.625ZM10.875 10.875H6.04167V6.04167H10.875V10.875Z" fill="#FBB810"/>
</svg>
