<svg width="18" height="21" viewBox="0 0 18 21" fill="none" xmlns="http://www.w3.org/2000/svg">
<path d="M17 6.34962L11 1.08962C10.45 0.597661 9.7379 0.325684 8.99997 0.325684C8.26204 0.325684 7.54999 0.597661 6.99997 1.08962L0.999973 6.34962C0.682341 6.63369 0.428873 6.98217 0.256445 7.37186C0.0840165 7.76155 -0.00341463 8.1835 -2.72762e-05 8.60962V17.3496C-2.72762e-05 18.1453 0.316043 18.9083 0.878652 19.4709C1.44126 20.0335 2.20432 20.3496 2.99997 20.3496H15C15.7956 20.3496 16.5587 20.0335 17.1213 19.4709C17.6839 18.9083 18 18.1453 18 17.3496V8.59962C18.0019 8.17518 17.9138 7.75516 17.7414 7.3673C17.5691 6.97944 17.3163 6.63257 17 6.34962ZM11 18.3496H6.99997V13.3496C6.99997 13.0844 7.10533 12.83 7.29287 12.6425C7.4804 12.455 7.73476 12.3496 7.99997 12.3496H9.99997C10.2652 12.3496 10.5195 12.455 10.7071 12.6425C10.8946 12.83 11 13.0844 11 13.3496V18.3496ZM16 17.3496C16 17.6148 15.8946 17.8692 15.7071 18.0567C15.5195 18.2443 15.2652 18.3496 15 18.3496H13V13.3496C13 12.554 12.6839 11.7909 12.1213 11.2283C11.5587 10.6657 10.7956 10.3496 9.99997 10.3496H7.99997C7.20432 10.3496 6.44126 10.6657 5.87865 11.2283C5.31604 11.7909 4.99997 12.554 4.99997 13.3496V18.3496H2.99997C2.73476 18.3496 2.4804 18.2443 2.29287 18.0567C2.10533 17.8692 1.99997 17.6148 1.99997 17.3496V8.59962C2.00015 8.45763 2.03057 8.31731 2.08919 8.18799C2.14781 8.05868 2.2333 7.94333 2.33997 7.84962L8.33997 2.59962C8.52246 2.4393 8.75706 2.35088 8.99997 2.35088C9.24288 2.35088 9.47748 2.4393 9.65997 2.59962L15.66 7.84962C15.7666 7.94333 15.8521 8.05868 15.9108 8.18799C15.9694 8.31731 15.9998 8.45763 16 8.59962V17.3496Z" fill="#E5EAFF"/>
</svg>
