<svg width="29" height="30" viewBox="0 0 29 30" fill="none" xmlns="http://www.w3.org/2000/svg">
<path d="M24.1667 10.0163L16.9167 3.66045C16.252 3.066 15.3917 2.73737 14.5 2.73737C13.6083 2.73737 12.7479 3.066 12.0833 3.66045L4.83333 10.0163C4.44952 10.3595 4.14325 10.7806 3.9349 11.2515C3.72655 11.7224 3.6209 12.2322 3.62499 12.7471V23.3079C3.62499 24.2694 4.00691 25.1914 4.68673 25.8712C5.36655 26.551 6.28858 26.9329 7.24999 26.9329H21.75C22.7114 26.9329 23.6334 26.551 24.3133 25.8712C24.9931 25.1914 25.375 24.2694 25.375 23.3079V12.735C25.3774 12.2222 25.2709 11.7146 25.0626 11.246C24.8543 10.7773 24.5489 10.3582 24.1667 10.0163ZM16.9167 24.5163H12.0833V18.4746C12.0833 18.1541 12.2106 17.8468 12.4372 17.6202C12.6638 17.3936 12.9712 17.2663 13.2917 17.2663H15.7083C16.0288 17.2663 16.3361 17.3936 16.5627 17.6202C16.7894 17.8468 16.9167 18.1541 16.9167 18.4746V24.5163ZM22.9583 23.3079C22.9583 23.6284 22.831 23.9358 22.6044 24.1624C22.3778 24.389 22.0705 24.5163 21.75 24.5163H19.3333V18.4746C19.3333 17.5132 18.9514 16.5912 18.2716 15.9114C17.5918 15.2315 16.6697 14.8496 15.7083 14.8496H13.2917C12.3302 14.8496 11.4082 15.2315 10.7284 15.9114C10.0486 16.5912 9.66666 17.5132 9.66666 18.4746V24.5163H7.24999C6.92952 24.5163 6.62218 24.389 6.39557 24.1624C6.16897 23.9358 6.04166 23.6284 6.04166 23.3079V12.735C6.04188 12.5635 6.07863 12.3939 6.14946 12.2377C6.2203 12.0814 6.3236 11.942 6.45249 11.8288L13.7025 5.48503C13.923 5.29131 14.2065 5.18448 14.5 5.18448C14.7935 5.18448 15.077 5.29131 15.2975 5.48503L22.5475 11.8288C22.6764 11.942 22.7797 12.0814 22.8505 12.2377C22.9214 12.3939 22.9581 12.5635 22.9583 12.735V23.3079Z" fill="#EBEFFF"/>
</svg>
