<svg width="29" height="29" viewBox="0 0 29 29" fill="none" xmlns="http://www.w3.org/2000/svg">
<path d="M14.5 13.6999C14.2746 13.6999 14.0544 13.7644 13.867 13.8853C13.6797 14.0061 13.5336 14.1779 13.4474 14.3789C13.3612 14.5799 13.3386 14.8011 13.3826 15.0145C13.4265 15.2278 13.535 15.4238 13.6944 15.5777C13.8537 15.7315 14.0567 15.8363 14.2777 15.8787C14.4987 15.9212 14.7278 15.8994 14.936 15.8161C15.1441 15.7329 15.3221 15.5919 15.4473 15.411C15.5724 15.2301 15.6393 15.0174 15.6393 14.7999C15.6393 14.5081 15.5192 14.2284 15.3056 14.0221C15.0919 13.8158 14.8021 13.6999 14.5 13.6999ZM22.475 6H6.52497C5.6185 6 4.74916 6.34767 4.10818 6.96653C3.46721 7.5854 3.10712 8.42475 3.10712 9.29995V20.2998C3.10712 21.175 3.46721 22.0144 4.10818 22.6332C4.74916 23.2521 5.6185 23.5998 6.52497 23.5998H19.7293L23.9447 27.6807C24.0511 27.7826 24.1774 27.8633 24.3162 27.918C24.455 27.9728 24.6036 28.0005 24.7535 27.9997C24.903 28.0034 25.0513 27.9733 25.1865 27.9117C25.3945 27.8292 25.5726 27.689 25.6983 27.5089C25.824 27.3289 25.8917 27.1169 25.8928 26.8997V9.29995C25.8928 8.42475 25.5327 7.5854 24.8918 6.96653C24.2508 6.34767 23.3814 6 22.475 6ZM23.6143 24.2487L21.0053 21.7188C20.8988 21.6168 20.7726 21.5362 20.6338 21.4814C20.495 21.4267 20.3463 21.3989 20.1964 21.3998H6.52497C6.22282 21.3998 5.93304 21.2839 5.71938 21.0776C5.50572 20.8713 5.38569 20.5915 5.38569 20.2998V9.29995C5.38569 9.00822 5.50572 8.72843 5.71938 8.52215C5.93304 8.31586 6.22282 8.19997 6.52497 8.19997H22.475C22.7771 8.19997 23.0669 8.31586 23.2806 8.52215C23.4942 8.72843 23.6143 9.00822 23.6143 9.29995V24.2487ZM9.94283 13.6999C9.7175 13.6999 9.49723 13.7644 9.30988 13.8853C9.12252 14.0061 8.9765 14.1779 8.89027 14.3789C8.80404 14.5799 8.78148 14.8011 8.82544 15.0145C8.8694 15.2278 8.9779 15.4238 9.13724 15.5777C9.29657 15.7315 9.49957 15.8363 9.72057 15.8787C9.94157 15.9212 10.1706 15.8994 10.3788 15.8161C10.587 15.7329 10.7649 15.5919 10.8901 15.411C11.0153 15.2301 11.0821 15.0174 11.0821 14.7999C11.0821 14.5081 10.9621 14.2284 10.7484 14.0221C10.5348 13.8158 10.245 13.6999 9.94283 13.6999ZM19.0571 13.6999C18.8318 13.6999 18.6115 13.7644 18.4242 13.8853C18.2368 14.0061 18.0908 14.1779 18.0046 14.3789C17.9183 14.5799 17.8958 14.8011 17.9397 15.0145C17.9837 15.2278 18.0922 15.4238 18.2515 15.5777C18.4109 15.7315 18.6139 15.8363 18.8349 15.8787C19.0559 15.9212 19.2849 15.8994 19.4931 15.8161C19.7013 15.7329 19.8792 15.5919 20.0044 15.411C20.1296 15.2301 20.1964 15.0174 20.1964 14.7999C20.1964 14.5081 20.0764 14.2284 19.8627 14.0221C19.6491 13.8158 19.3593 13.6999 19.0571 13.6999Z" fill="#FBB810"/>
</svg>
