<svg width="29" height="29" viewBox="0 0 29 29" fill="none" xmlns="http://www.w3.org/2000/svg">
<path d="M14.5 2.41675C12.1564 2.4212 9.86471 3.10708 7.904 4.39085C5.9433 5.67462 4.39823 7.50086 3.45699 9.64714C2.51575 11.7934 2.21897 14.1671 2.6028 16.479C2.98663 18.791 4.0345 20.9414 5.61877 22.6684V22.6684C6.75028 23.8949 8.12357 24.8738 9.65211 25.5433C11.1806 26.2128 12.8313 26.5584 14.5 26.5584C16.1687 26.5584 17.8194 26.2128 19.3479 25.5433C20.8765 24.8738 22.2498 23.8949 23.3813 22.6684V22.6684C24.9655 20.9414 26.0134 18.791 26.3972 16.479C26.7811 14.1671 26.4843 11.7934 25.543 9.64714C24.6018 7.50086 23.0567 5.67462 21.096 4.39085C19.1353 3.10708 16.8436 2.4212 14.5 2.41675V2.41675ZM14.5 24.1667C11.9969 24.1629 9.59287 23.1883 7.79377 21.448C8.33999 20.1183 9.26918 18.9809 10.4633 18.1805C11.6574 17.3801 13.0625 16.9528 14.5 16.9528C15.9376 16.9528 17.3427 17.3801 18.5368 18.1805C19.7309 18.9809 20.66 20.1183 21.2063 21.448C19.4072 23.1883 17.0031 24.1629 14.5 24.1667ZM12.0834 12.0834C12.0834 11.6054 12.2251 11.1382 12.4906 10.7408C12.7562 10.3434 13.1336 10.0336 13.5752 9.85071C14.0168 9.66779 14.5027 9.61994 14.9715 9.71318C15.4403 9.80643 15.8709 10.0366 16.2089 10.3746C16.5468 10.7126 16.777 11.1432 16.8702 11.6119C16.9635 12.0807 16.9156 12.5666 16.7327 13.0082C16.5498 13.4498 16.2401 13.8273 15.8426 14.0928C15.4452 14.3583 14.978 14.5001 14.5 14.5001C13.8591 14.5001 13.2444 14.2455 12.7912 13.7923C12.338 13.339 12.0834 12.7244 12.0834 12.0834ZM22.8496 19.3334C21.77 17.4868 20.1084 16.0504 18.125 15.2492C18.7403 14.5516 19.1411 13.6913 19.2795 12.7715C19.418 11.8517 19.288 10.9115 18.9053 10.0637C18.5226 9.2159 17.9034 8.49655 17.122 7.99196C16.3406 7.48736 15.4302 7.21897 14.5 7.21897C13.5699 7.21897 12.6595 7.48736 11.878 7.99196C11.0966 8.49655 10.4774 9.2159 10.0947 10.0637C9.71203 10.9115 9.58209 11.8517 9.72049 12.7715C9.8589 13.6913 10.2598 14.5516 10.875 15.2492C8.89166 16.0504 7.23004 17.4868 6.15044 19.3334C5.29003 17.8678 4.83543 16.1996 4.83335 14.5001C4.83335 11.9363 5.8518 9.47757 7.66465 7.66472C9.47751 5.85186 11.9363 4.83341 14.5 4.83341C17.0638 4.83341 19.5225 5.85186 21.3354 7.66472C23.1482 9.47757 24.1667 11.9363 24.1667 14.5001C24.1646 16.1996 23.71 17.8678 22.8496 19.3334V19.3334Z" fill="#FBB810"/>
</svg>
