<svg width="34" height="34" viewBox="0 0 34 34" fill="none" xmlns="http://www.w3.org/2000/svg">
<path d="M14.1666 5.66667L12.75 5.66667C11.4325 5.66667 10.7738 5.66667 10.2333 5.81145C8.7667 6.20444 7.62111 7.35009 7.22812 8.81663C7.08331 9.35708 7.08331 10.0158 7.08331 11.3333" stroke="white" stroke-width="3.5" stroke-linejoin="round"/>
<path d="M19.8333 5.66667L21.25 5.66667C22.5675 5.66667 23.2262 5.66667 23.7667 5.81145C25.2332 6.20444 26.3789 7.35009 26.7719 8.81663C26.9166 9.35708 26.9166 10.0158 26.9166 11.3333" stroke="white" stroke-width="3.5" stroke-linejoin="round"/>
<path d="M26.9166 19.8333L26.9166 21.25C26.9166 23.8981 26.9166 25.2221 26.3473 26.2083C25.9743 26.8544 25.4378 27.3909 24.7916 27.7639C23.8054 28.3333 22.4813 28.3333 19.8333 28.3333" stroke="white" stroke-width="3.5" stroke-linejoin="round"/>
<path d="M7.08331 19.8333L7.08331 21.25C7.08331 23.8981 7.08331 25.2221 7.6527 26.2083C8.02572 26.8544 8.56223 27.3909 9.20831 27.7639C10.1945 28.3333 11.5186 28.3333 14.1666 28.3333" stroke="white" stroke-width="3.5" stroke-linejoin="round"/>
<path d="M29.75 19.8333L4.25 19.8333" stroke="white" stroke-width="3.5" stroke-linecap="round" stroke-linejoin="round"/>
</svg>
