<svg width="29" height="30" viewBox="0 0 29 30" fill="none" xmlns="http://www.w3.org/2000/svg">
<path d="M23.9465 15.7919C23.7521 15.5729 23.645 15.2915 23.645 15C23.645 14.7086 23.7521 14.4271 23.9465 14.2081L25.4983 12.4803C25.6693 12.2916 25.7755 12.054 25.8016 11.8018C25.8278 11.5496 25.7725 11.2957 25.6438 11.0765L23.2191 6.9251C23.0917 6.70615 22.8977 6.5326 22.6647 6.42919C22.4318 6.32577 22.1718 6.29777 21.9219 6.34918L19.6426 6.80511C19.3526 6.86442 19.0507 6.81662 18.7939 6.67073C18.537 6.52485 18.343 6.29096 18.2484 6.01322L17.5089 3.81752C17.4276 3.57921 17.2726 3.37222 17.0659 3.22581C16.8593 3.0794 16.6113 3.00098 16.3572 3.00163H11.5077C11.2434 2.98798 10.9817 3.06034 10.7628 3.20766C10.5439 3.35499 10.3797 3.56918 10.2954 3.81752L9.61645 6.01322C9.52189 6.29096 9.32788 6.52485 9.07103 6.67073C8.81418 6.81662 8.51226 6.86442 8.22224 6.80511L5.88239 6.34918C5.64544 6.31604 5.40388 6.35304 5.18814 6.45553C4.97239 6.55802 4.79212 6.7214 4.67004 6.9251L2.24532 11.0765C2.11337 11.2933 2.05404 11.5458 2.07582 11.7979C2.09759 12.05 2.19936 12.2889 2.36656 12.4803L3.90625 14.2081C4.10062 14.4271 4.20781 14.7086 4.20781 15C4.20781 15.2915 4.10062 15.5729 3.90625 15.7919L2.36656 17.5197C2.19936 17.7111 2.09759 17.95 2.07582 18.2021C2.05404 18.4542 2.11337 18.7067 2.24532 18.9235L4.67004 23.0749C4.79745 23.2938 4.99146 23.4674 5.22439 23.5708C5.45732 23.6742 5.7173 23.7022 5.96726 23.6508L8.24649 23.1949C8.53651 23.1356 8.83843 23.1834 9.09528 23.3293C9.35213 23.4752 9.54614 23.709 9.6407 23.9868L10.3802 26.1825C10.4646 26.4308 10.6288 26.645 10.8477 26.7923C11.0666 26.9397 11.3282 27.012 11.5926 26.9984H16.442C16.6962 26.999 16.9441 26.9206 17.1508 26.7742C17.3575 26.6278 17.5124 26.4208 17.5938 26.1825L18.3333 23.9868C18.4279 23.709 18.6219 23.4752 18.8787 23.3293C19.1356 23.1834 19.4375 23.1356 19.7275 23.1949L22.0067 23.6508C22.2567 23.7022 22.5167 23.6742 22.7496 23.5708C22.9825 23.4674 23.1765 23.2938 23.304 23.0749L25.7287 18.9235C25.8574 18.7043 25.9126 18.4504 25.8865 18.1982C25.8604 17.946 25.7542 17.7084 25.5832 17.5197L23.9465 15.7919ZM22.1401 17.3997L23.11 18.4795L21.5582 21.1432L20.1276 20.8552C19.2544 20.6786 18.3461 20.8254 17.5751 21.2677C16.8041 21.7101 16.224 22.4172 15.945 23.2549L15.4843 24.5987H12.3806L11.9442 23.2309C11.6652 22.3932 11.0851 21.6861 10.314 21.2437C9.54302 20.8014 8.63471 20.6546 7.76155 20.8312L6.33097 21.1192L4.7549 18.4675L5.72479 17.3877C6.32121 16.7277 6.65095 15.8734 6.65095 14.988C6.65095 14.1026 6.32121 13.2483 5.72479 12.5883L4.7549 11.5085L6.30672 8.86883L7.7373 9.15679C8.61047 9.33344 9.51877 9.18665 10.2898 8.74429C11.0608 8.30193 11.6409 7.5948 11.9199 6.75712L12.3806 5.40131H15.4843L15.945 6.76912C16.224 7.6068 16.8041 8.31393 17.5751 8.75629C18.3461 9.19865 19.2544 9.34544 20.1276 9.16879L21.5582 8.88083L23.11 11.5445L22.1401 12.6243C21.5504 13.2827 21.2247 14.1321 21.2247 15.012C21.2247 15.8919 21.5504 16.7413 22.1401 17.3997ZM13.9324 10.2007C12.9733 10.2007 12.0357 10.4821 11.2382 11.0095C10.4408 11.5368 9.8192 12.2864 9.45216 13.1634C9.08512 14.0403 8.98908 15.0053 9.1762 15.9363C9.36331 16.8673 9.82518 17.7225 10.5034 18.3937C11.1816 19.0649 12.0457 19.5219 12.9864 19.7071C13.9271 19.8923 14.9021 19.7973 15.7882 19.434C16.6744 19.0708 17.4317 18.4556 17.9646 17.6664C18.4975 16.8771 18.7819 15.9492 18.7819 15C18.7819 13.7271 18.2709 12.5064 17.3615 11.6063C16.4521 10.7063 15.2186 10.2007 13.9324 10.2007ZM13.9324 17.3997C13.4529 17.3997 12.9841 17.2589 12.5853 16.9953C12.1866 16.7316 11.8758 16.3568 11.6923 15.9183C11.5088 15.4798 11.4608 14.9973 11.5543 14.5318C11.6479 14.0664 11.8788 13.6388 12.2179 13.3032C12.557 12.9676 12.9891 12.739 13.4594 12.6464C13.9298 12.5538 14.4173 12.6014 14.8603 12.783C15.3034 12.9646 15.6821 13.2722 15.9485 13.6668C16.2149 14.0614 16.3572 14.5254 16.3572 15C16.3572 15.6364 16.1017 16.2468 15.647 16.6968C15.1923 17.1469 14.5755 17.3997 13.9324 17.3997Z" fill="#E5EAFF"/>
</svg>
