<svg width="19" height="19" viewBox="0 0 19 19" fill="none" xmlns="http://www.w3.org/2000/svg">
<path opacity="0.4" d="M17.4166 12.6193C17.4166 14.8281 15.6433 16.6172 13.4345 16.6252H13.4266H5.58117C3.38034 16.6252 1.58325 14.8439 1.58325 12.6352V12.6272C1.58325 12.6272 1.588 9.12333 1.59434 7.36108C1.59513 7.03016 1.97513 6.84491 2.234 7.05075C4.115 8.54304 7.47879 11.264 7.52075 11.2996C8.08284 11.7501 8.79534 12.0042 9.52367 12.0042C10.252 12.0042 10.9645 11.7501 11.5266 11.2909C11.5685 11.2632 14.8571 8.62379 16.7666 7.10695C17.0263 6.90033 17.4079 7.08558 17.4087 7.4157C17.4166 9.1645 17.4166 12.6193 17.4166 12.6193Z" fill="#9F9F9F"/>
<path d="M17.0018 4.49167C16.3162 3.19967 14.9672 2.37476 13.4821 2.37476H5.58125C4.09608 2.37476 2.74708 3.19967 2.0615 4.49167C1.90791 4.78063 1.98075 5.14084 2.23646 5.34509L8.11458 10.0468C8.52625 10.3793 9.025 10.5448 9.52375 10.5448C9.52691 10.5448 9.52929 10.5448 9.53166 10.5448C9.53404 10.5448 9.53721 10.5448 9.53958 10.5448C10.0383 10.5448 10.5371 10.3793 10.9487 10.0468L16.8269 5.34509C17.0826 5.14084 17.1554 4.78063 17.0018 4.49167Z" fill="#9F9F9F"/>
</svg>
