<svg width="17" height="17" viewBox="0 0 17 17" fill="none" xmlns="http://www.w3.org/2000/svg">
<path fill-rule="evenodd" clip-rule="evenodd" d="M5.5029 6.17236H11.4971C13.167 6.17236 14.5208 7.49638 14.5208 9.12941V12.6263C14.5208 14.2594 13.167 15.5834 11.4971 15.5834H5.5029C3.83304 15.5834 2.47916 14.2594 2.47916 12.6263V9.12941C2.47916 7.49638 3.83304 6.17236 5.5029 6.17236ZM8.4964 12.2751C8.84908 12.2751 9.12979 12.0006 9.12979 11.6557V10.093C9.12979 9.75517 8.84908 9.48065 8.4964 9.48065C8.15091 9.48065 7.8702 9.75517 7.8702 10.093V11.6557C7.8702 12.0006 8.15091 12.2751 8.4964 12.2751Z" fill="#9F9F9F"/>
<path opacity="0.4" d="M12.412 5.23888V6.28064C12.1601 6.21025 11.8938 6.17506 11.6203 6.17506H11.1524V5.23888C11.1524 3.80998 9.96479 2.64856 8.50367 2.64856C7.04255 2.64856 5.85494 3.80294 5.84774 5.2248V6.17506H5.38709C5.10638 6.17506 4.84007 6.21025 4.58815 6.28768V5.23888C4.59535 3.12721 6.34438 1.41675 8.48928 1.41675C10.663 1.41675 12.412 3.12721 12.412 5.23888Z" fill="#9F9F9F"/>
</svg>
