<svg width="15" height="15" viewBox="0 0 15 15" fill="none" xmlns="http://www.w3.org/2000/svg">
<path d="M12.7093 11.2092L12.7094 11.2093C13.097 11.8414 12.9831 12.7277 12.297 13.1664L12.7093 11.2092ZM12.7093 11.2092C12.3423 10.6107 11.8291 10.1461 11.1482 9.82603C10.4545 9.49994 9.63059 9.34739 8.70855 9.28573C10.046 8.79362 11 7.5082 11 6C11 4.067 9.43296 2.5 7.5 2.5C5.567 2.5 4 4.067 4 6C4 7.51006 4.95633 8.79679 6.29639 9.28755C5.36627 9.3527 4.537 9.51338 3.83909 9.8506L3.83906 9.85061C3.17619 10.1709 2.67374 10.628 2.31084 11.2097L2.73505 11.4743M12.7093 11.2092L2.73505 11.4743M2.73505 11.4743L2.31083 11.2097C1.91357 11.8465 2.02966 12.7453 2.72807 13.1827C3.17743 13.4642 3.68279 13.6282 4.1544 13.7329C5.0209 13.9255 6.11598 14 7.49985 14C8.8838 14 9.97883 13.9255 10.8454 13.7329C11.326 13.6261 11.8414 13.4577 12.297 13.1664L2.73505 11.4743ZM0.778957 10.954L0.291274 11.0623L0.778957 10.954C0.574435 10.0337 0.5 8.89531 0.5 7.5C0.5 6.10469 0.574435 4.96632 0.778957 4.04602C0.984129 3.12284 1.3235 2.40397 1.86374 1.86374C2.40397 1.3235 3.12284 0.984129 4.04602 0.778957C4.96632 0.574435 6.10469 0.5 7.5 0.5C8.89531 0.5 10.0337 0.574435 10.954 0.778957L11.0624 0.290865L10.954 0.778957C11.8772 0.984128 12.596 1.3235 13.1363 1.86374C13.6765 2.40397 14.0158 3.12284 14.2211 4.04605C14.4256 4.96634 14.5 6.10471 14.5 7.5C14.5 8.8953 14.4256 10.0337 14.2211 10.9539C14.0159 11.8772 13.6765 12.596 13.1362 13.1362C12.596 13.6765 11.8772 14.0159 10.9539 14.2211C10.0337 14.4256 8.8953 14.5 7.5 14.5C6.10471 14.5 4.96634 14.4256 4.04605 14.2211C3.12284 14.0158 2.40397 13.6765 1.86374 13.1363C1.3235 12.596 0.984128 11.8772 0.778957 10.954Z" fill="#9F9F9F" stroke="#9F9F9F"/>
</svg>
