<svg width="16" height="18" viewBox="0 0 16 18" fill="none" xmlns="http://www.w3.org/2000/svg">
<path d="M16 6.246C15.9907 6.16332 15.9729 6.08187 15.9467 6.003V5.922C15.9039 5.82946 15.8469 5.7444 15.7778 5.67L10.4444 0.27C10.371 0.199995 10.287 0.142273 10.1956 0.0989999C10.169 0.0951841 10.1421 0.0951841 10.1156 0.0989999C10.0253 0.0465671 9.92553 0.0129098 9.82222 0H6.22222C5.51498 0 4.8367 0.284464 4.3366 0.790812C3.83651 1.29716 3.55556 1.98392 3.55556 2.7V3.6H2.66667C1.95942 3.6 1.28115 3.88446 0.781049 4.39081C0.280952 4.89716 0 5.58392 0 6.3V15.3C0 16.0161 0.280952 16.7028 0.781049 17.2092C1.28115 17.7155 1.95942 18 2.66667 18H9.77778C10.485 18 11.1633 17.7155 11.6634 17.2092C12.1635 16.7028 12.4444 16.0161 12.4444 15.3V14.4H13.3333C14.0406 14.4 14.7189 14.1155 15.219 13.6092C15.719 13.1028 16 12.4161 16 11.7V6.3C16 6.3 16 6.3 16 6.246ZM10.6667 3.069L12.9689 5.4H11.5556C11.3198 5.4 11.0937 5.30518 10.927 5.1364C10.7603 4.96761 10.6667 4.73869 10.6667 4.5V3.069ZM10.6667 15.3C10.6667 15.5387 10.573 15.7676 10.4063 15.9364C10.2396 16.1052 10.0135 16.2 9.77778 16.2H2.66667C2.43092 16.2 2.20483 16.1052 2.03813 15.9364C1.87143 15.7676 1.77778 15.5387 1.77778 15.3V6.3C1.77778 6.0613 1.87143 5.83239 2.03813 5.6636C2.20483 5.49482 2.43092 5.4 2.66667 5.4H3.55556V11.7C3.55556 12.4161 3.83651 13.1028 4.3366 13.6092C4.8367 14.1155 5.51498 14.4 6.22222 14.4H10.6667V15.3ZM14.2222 11.7C14.2222 11.9387 14.1286 12.1676 13.9619 12.3364C13.7952 12.5052 13.5691 12.6 13.3333 12.6H6.22222C5.98647 12.6 5.76038 12.5052 5.59368 12.3364C5.42698 12.1676 5.33333 11.9387 5.33333 11.7V2.7C5.33333 2.46131 5.42698 2.23239 5.59368 2.0636C5.76038 1.89482 5.98647 1.8 6.22222 1.8H8.88889V4.5C8.88889 5.21608 9.16984 5.90284 9.66994 6.40919C10.17 6.91554 10.8483 7.2 11.5556 7.2H14.2222V11.7Z" fill="#7A74FF"/>
</svg>
