<svg width="19" height="18" viewBox="0 0 19 18" fill="none" xmlns="http://www.w3.org/2000/svg">
<path d="M9.5 0.0625C14.4281 0.0625 18.4375 4.07191 18.4375 9C18.4375 13.9281 14.4281 17.9375 9.5 17.9375C4.57191 17.9375 0.5625 13.9281 0.5625 9C0.5625 4.07191 4.57191 0.0625 9.5 0.0625ZM6.26402 11.264C6.1975 11.3272 6.14429 11.4031 6.10756 11.4872C6.07082 11.5713 6.05129 11.6619 6.05011 11.7536C6.04894 11.8454 6.06614 11.9365 6.10072 12.0215C6.13529 12.1065 6.18653 12.1837 6.25142 12.2486C6.31631 12.3135 6.39353 12.3647 6.47853 12.3993C6.56353 12.4339 6.6546 12.4511 6.74636 12.4499C6.83811 12.4487 6.92871 12.4292 7.0128 12.3924C7.09689 12.3557 7.17277 12.3025 7.23598 12.236L9.5 9.97238L11.764 12.236C11.894 12.3595 12.0671 12.4273 12.2464 12.425C12.4256 12.4227 12.5969 12.3505 12.7237 12.2237C12.8505 12.0969 12.9227 11.9256 12.925 11.7464C12.9273 11.5671 12.8595 11.394 12.736 11.264L10.4724 9L12.736 6.73598C12.8595 6.606 12.9273 6.43292 12.925 6.25364C12.9227 6.07437 12.8505 5.90309 12.7237 5.77631C12.5969 5.64953 12.4256 5.5773 12.2464 5.575C12.0671 5.57271 11.894 5.64053 11.764 5.76402L9.5 8.02762L7.23598 5.76402C7.106 5.64053 6.93292 5.57271 6.75364 5.575C6.57437 5.5773 6.40309 5.64953 6.27631 5.77631C6.14953 5.90309 6.0773 6.07437 6.075 6.25364C6.07271 6.43292 6.14053 6.606 6.26402 6.73598L8.52762 9L6.26402 11.264Z" fill="#403E51"/>
</svg>
