<svg width="20" height="20" viewBox="0 0 20 20" fill="none" xmlns="http://www.w3.org/2000/svg">
<path d="M8.71665 5.00008L9.16665 4.50841V7.50008C9.16665 7.72109 9.25444 7.93305 9.41072 8.08933C9.56701 8.24561 9.77897 8.33341 9.99998 8.33341C10.221 8.33341 10.433 8.24561 10.5892 8.08933C10.7455 7.93305 10.8333 7.72109 10.8333 7.50008V4.50841L11.2833 4.96674C11.359 5.05218 11.4513 5.12117 11.5547 5.16944C11.6581 5.21771 11.7703 5.24422 11.8844 5.24735C11.9985 5.25047 12.112 5.23014 12.2179 5.1876C12.3237 5.14507 12.4198 5.08124 12.5 5.00008C12.5781 4.92261 12.6401 4.83044 12.6824 4.72889C12.7247 4.62734 12.7465 4.51842 12.7465 4.40841C12.7465 4.2984 12.7247 4.18948 12.6824 4.08793C12.6401 3.98638 12.5781 3.89421 12.5 3.81674L10.5916 1.90841C10.5124 1.83254 10.4189 1.77307 10.3166 1.73341C10.1138 1.65006 9.8862 1.65006 9.68331 1.73341C9.58102 1.77307 9.48757 1.83254 9.40831 1.90841L7.49998 3.78341C7.33864 3.94475 7.248 4.16357 7.248 4.39174C7.248 4.61991 7.33864 4.83874 7.49998 5.00008C7.66132 5.16142 7.88014 5.25206 8.10831 5.25206C8.33648 5.25206 8.55531 5.16142 8.71665 5.00008ZM9.99998 10.0001C9.50553 10.0001 9.02218 10.1467 8.61105 10.4214C8.19993 10.6961 7.8795 11.0866 7.69028 11.5434C7.50106 12.0002 7.45155 12.5028 7.54802 12.9878C7.64448 13.4728 7.88258 13.9182 8.23221 14.2678C8.58184 14.6175 9.0273 14.8556 9.51225 14.952C9.99721 15.0485 10.4999 14.999 10.9567 14.8098C11.4135 14.6206 11.804 14.3001 12.0787 13.889C12.3534 13.4779 12.5 12.9945 12.5 12.5001C12.5 11.837 12.2366 11.2011 11.7677 10.7323C11.2989 10.2635 10.663 10.0001 9.99998 10.0001ZM9.99998 13.3334C9.83516 13.3334 9.67405 13.2845 9.537 13.193C9.39996 13.1014 9.29315 12.9713 9.23008 12.819C9.16701 12.6667 9.1505 12.4992 9.18266 12.3375C9.21481 12.1758 9.29418 12.0274 9.41072 11.9108C9.52727 11.7943 9.67575 11.7149 9.83741 11.6828C9.99906 11.6506 10.1666 11.6671 10.3189 11.7302C10.4712 11.7932 10.6013 11.9001 10.6929 12.0371C10.7844 12.1741 10.8333 12.3353 10.8333 12.5001C10.8333 12.7211 10.7455 12.9331 10.5892 13.0893C10.433 13.2456 10.221 13.3334 9.99998 13.3334ZM4.16665 12.5001C4.16665 12.6649 4.21552 12.826 4.30709 12.9631C4.39866 13.1001 4.52881 13.2069 4.68108 13.27C4.83335 13.333 5.0009 13.3496 5.16256 13.3174C5.32421 13.2852 5.47269 13.2059 5.58924 13.0893C5.70578 12.9728 5.78515 12.8243 5.8173 12.6627C5.84946 12.501 5.83295 12.3334 5.76988 12.1812C5.70681 12.0289 5.6 11.8988 5.46295 11.8072C5.32591 11.7156 5.1648 11.6667 4.99998 11.6667C4.77897 11.6667 4.567 11.7545 4.41072 11.9108C4.25444 12.0671 4.16665 12.2791 4.16665 12.5001ZM15.8333 12.5001C15.8333 12.3353 15.7844 12.1741 15.6929 12.0371C15.6013 11.9001 15.4712 11.7932 15.3189 11.7302C15.1666 11.6671 14.9991 11.6506 14.8374 11.6828C14.6758 11.7149 14.5273 11.7943 14.4107 11.9108C14.2942 12.0274 14.2148 12.1758 14.1827 12.3375C14.1505 12.4992 14.167 12.6667 14.2301 12.819C14.2932 12.9713 14.4 13.1014 14.537 13.193C14.674 13.2845 14.8352 13.3334 15 13.3334C15.221 13.3334 15.433 13.2456 15.5892 13.0893C15.7455 12.9331 15.8333 12.7211 15.8333 12.5001ZM16.6666 6.66674H13.3333C13.1123 6.66674 12.9003 6.75454 12.7441 6.91082C12.5878 7.0671 12.5 7.27906 12.5 7.50008C12.5 7.72109 12.5878 7.93305 12.7441 8.08933C12.9003 8.24561 13.1123 8.33341 13.3333 8.33341H16.6666C16.8877 8.33341 17.0996 8.42121 17.2559 8.57749C17.4122 8.73377 17.5 8.94573 17.5 9.16674V15.8334C17.5 16.0544 17.4122 16.2664 17.2559 16.4227C17.0996 16.5789 16.8877 16.6667 16.6666 16.6667H3.33331C3.1123 16.6667 2.90034 16.5789 2.74406 16.4227C2.58778 16.2664 2.49998 16.0544 2.49998 15.8334V9.16674C2.49998 8.94573 2.58778 8.73377 2.74406 8.57749C2.90034 8.42121 3.1123 8.33341 3.33331 8.33341H6.66665C6.88766 8.33341 7.09962 8.24561 7.2559 8.08933C7.41218 7.93305 7.49998 7.72109 7.49998 7.50008C7.49998 7.27906 7.41218 7.0671 7.2559 6.91082C7.09962 6.75454 6.88766 6.66674 6.66665 6.66674H3.33331C2.67027 6.66674 2.03439 6.93013 1.56555 7.39898C1.09671 7.86782 0.833313 8.5037 0.833313 9.16674V15.8334C0.833313 16.4965 1.09671 17.1323 1.56555 17.6012C2.03439 18.07 2.67027 18.3334 3.33331 18.3334H16.6666C17.3297 18.3334 17.9656 18.07 18.4344 17.6012C18.9033 17.1323 19.1666 16.4965 19.1666 15.8334V9.16674C19.1666 8.5037 18.9033 7.86782 18.4344 7.39898C17.9656 6.93013 17.3297 6.66674 16.6666 6.66674Z" fill="#F1F0FF"/>
</svg>
