<svg width="24" height="24" viewBox="0 0 24 24" fill="none" xmlns="http://www.w3.org/2000/svg">
<path d="M12 1.998C17.524 1.998 22.002 6.476 22.002 12C22.002 17.523 17.524 22 12 22C6.476 22.001 2 17.523 2 12C1.999 6.476 6.476 1.998 12 1.998ZM11.996 10.248C11.7509 10.2483 11.5145 10.3386 11.3316 10.5018C11.1488 10.6649 11.0322 10.8896 11.004 11.133L10.997 11.249L11.001 16.751L11.007 16.867C11.0349 17.1109 11.1516 17.336 11.3349 17.4994C11.5181 17.6629 11.755 17.7532 12.0005 17.7532C12.246 17.7532 12.4829 17.6629 12.6661 17.4994C12.8494 17.336 12.9661 17.1109 12.994 16.867L13 16.75L12.996 11.248L12.989 11.131C12.9601 10.8878 12.8429 10.6636 12.6597 10.501C12.4765 10.3384 12.24 10.2488 11.995 10.249L11.996 10.248ZM12.001 6.499C11.6691 6.499 11.3508 6.63086 11.1161 6.86556C10.8814 7.10026 10.7495 7.41858 10.7495 7.7505C10.7495 8.08242 10.8814 8.40074 11.1161 8.63544C11.3508 8.87015 11.6691 9.002 12.001 9.002C12.1653 9.00194 12.3279 8.96951 12.4797 8.90658C12.6315 8.84365 12.7693 8.75145 12.8854 8.63524C13.0016 8.51903 13.0937 8.38108 13.1565 8.22928C13.2193 8.07747 13.2516 7.91478 13.2515 7.7505C13.2514 7.58622 13.219 7.42356 13.1561 7.2718C13.0932 7.12005 13.0009 6.98218 12.8847 6.86606C12.7685 6.74994 12.6306 6.65784 12.4788 6.59504C12.327 6.53223 12.1643 6.49994 12 6.5L12.001 6.499Z" fill="#FF9384"/>
</svg>
