<svg width="18" height="18" viewBox="0 0 18 18" fill="none" xmlns="http://www.w3.org/2000/svg">
<path d="M8.15626 14.4752L3.20626 9.52517C3.13126 9.45017 3.07801 9.36892 3.04651 9.28142C3.01501 9.19392 2.99951 9.10017 3.00001 9.00017C3.00001 8.90017 3.01576 8.80642 3.04726 8.71892C3.07876 8.63142 3.13176 8.55017 3.20626 8.47517L8.15626 3.52517C8.29376 3.38767 8.46576 3.31592 8.67226 3.30992C8.87876 3.30392 9.05676 3.37567 9.20626 3.52517C9.35626 3.66267 9.43451 3.83467 9.44101 4.04117C9.44751 4.24767 9.37551 4.42567 9.22501 4.57517L5.55001 8.25017H13.9313C14.1438 8.25017 14.322 8.32217 14.466 8.46617C14.61 8.61017 14.6818 8.78817 14.6813 9.00017C14.6813 9.21267 14.6095 9.39092 14.466 9.53492C14.3225 9.67892 14.1443 9.75067 13.9313 9.75017H5.55001L9.22501 13.4252C9.36251 13.5627 9.43451 13.7377 9.44101 13.9502C9.44751 14.1627 9.37551 14.3377 9.22501 14.4752C9.08751 14.6252 8.91251 14.7002 8.70001 14.7002C8.48751 14.7002 8.30626 14.6252 8.15626 14.4752Z" fill="#A9B9F2"/>
</svg>
