<svg width="18" height="18" viewBox="0 0 18 18" fill="none" xmlns="http://www.w3.org/2000/svg">
<path d="M7.16667 9.91667H1.66667C1.42355 9.91667 1.19039 10.0132 1.01849 10.1852C0.846577 10.3571 0.75 10.5902 0.75 10.8333V16.3333C0.75 16.5764 0.846577 16.8096 1.01849 16.9815C1.19039 17.1534 1.42355 17.25 1.66667 17.25H7.16667C7.40978 17.25 7.64294 17.1534 7.81485 16.9815C7.98676 16.8096 8.08333 16.5764 8.08333 16.3333V10.8333C8.08333 10.5902 7.98676 10.3571 7.81485 10.1852C7.64294 10.0132 7.40978 9.91667 7.16667 9.91667ZM6.25 15.4167H2.58333V11.75H6.25V15.4167ZM16.3333 0.75H10.8333C10.5902 0.75 10.3571 0.846577 10.1852 1.01849C10.0132 1.19039 9.91667 1.42355 9.91667 1.66667V7.16667C9.91667 7.40978 10.0132 7.64294 10.1852 7.81485C10.3571 7.98676 10.5902 8.08333 10.8333 8.08333H16.3333C16.5764 8.08333 16.8096 7.98676 16.9815 7.81485C17.1534 7.64294 17.25 7.40978 17.25 7.16667V1.66667C17.25 1.42355 17.1534 1.19039 16.9815 1.01849C16.8096 0.846577 16.5764 0.75 16.3333 0.75ZM15.4167 6.25H11.75V2.58333H15.4167V6.25ZM16.3333 12.6667H14.5V10.8333C14.5 10.5902 14.4034 10.3571 14.2315 10.1852C14.0596 10.0132 13.8264 9.91667 13.5833 9.91667C13.3402 9.91667 13.1071 10.0132 12.9352 10.1852C12.7632 10.3571 12.6667 10.5902 12.6667 10.8333V12.6667H10.8333C10.5902 12.6667 10.3571 12.7632 10.1852 12.9352C10.0132 13.1071 9.91667 13.3402 9.91667 13.5833C9.91667 13.8264 10.0132 14.0596 10.1852 14.2315C10.3571 14.4034 10.5902 14.5 10.8333 14.5H12.6667V16.3333C12.6667 16.5764 12.7632 16.8096 12.9352 16.9815C13.1071 17.1534 13.3402 17.25 13.5833 17.25C13.8264 17.25 14.0596 17.1534 14.2315 16.9815C14.4034 16.8096 14.5 16.5764 14.5 16.3333V14.5H16.3333C16.5764 14.5 16.8096 14.4034 16.9815 14.2315C17.1534 14.0596 17.25 13.8264 17.25 13.5833C17.25 13.3402 17.1534 13.1071 16.9815 12.9352C16.8096 12.7632 16.5764 12.6667 16.3333 12.6667ZM7.16667 0.75H1.66667C1.42355 0.75 1.19039 0.846577 1.01849 1.01849C0.846577 1.19039 0.75 1.42355 0.75 1.66667V7.16667C0.75 7.40978 0.846577 7.64294 1.01849 7.81485C1.19039 7.98676 1.42355 8.08333 1.66667 8.08333H7.16667C7.40978 8.08333 7.64294 7.98676 7.81485 7.81485C7.98676 7.64294 8.08333 7.40978 8.08333 7.16667V1.66667C8.08333 1.42355 7.98676 1.19039 7.81485 1.01849C7.64294 0.846577 7.40978 0.75 7.16667 0.75ZM6.25 6.25H2.58333V2.58333H6.25V6.25Z" fill="white"/>
</svg>
