<svg width="24" height="24" viewBox="0 0 24 24" fill="none" xmlns="http://www.w3.org/2000/svg">
<path d="M10 4L9 4C8.07003 4 7.60504 4 7.22354 4.1022C6.18827 4.3796 5.37962 5.1883 5.10222 6.2235C5 6.605 5 7.07 5 8" stroke="url(#paint0_linear_27_580)" stroke-width="2.5" stroke-linejoin="round"/>
<path d="M14 4L15 4C15.93 4 16.395 4 16.7765 4.1022C17.8117 4.3796 18.6204 5.1883 18.8978 6.2235C19 6.605 19 7.07 19 8" stroke="url(#paint1_linear_27_580)" stroke-width="2.5" stroke-linejoin="round"/>
<path d="M19 14L19 15C19 16.8692 19 17.8038 18.5981 18.5C18.3348 18.9561 17.9561 19.3348 17.5 19.5981C16.8038 20 15.8692 20 14 20" stroke="url(#paint2_linear_27_580)" stroke-width="2.5" stroke-linejoin="round"/>
<path d="M5 14L5 15C5 16.8692 5 17.8039 5.40192 18.5C5.66523 18.9561 6.04394 19.3348 6.5 19.5981C7.19615 20 8.13077 20 10 20" stroke="url(#paint3_linear_27_580)" stroke-width="2.5" stroke-linejoin="round"/>
<path d="M21 14L3 14" stroke="url(#paint4_linear_27_580)" stroke-width="2.5" stroke-linecap="round" stroke-linejoin="round"/>
<defs>
<linearGradient id="paint0_linear_27_580" x1="4.68229" y1="3.84085" x2="10.069" y2="7.76193" gradientUnits="userSpaceOnUse">
<stop stop-color="#E9E5FF"/>
<stop offset="1" stop-color="#E4F9F6"/>
</linearGradient>
<linearGradient id="paint1_linear_27_580" x1="13.6823" y1="3.84085" x2="19.069" y2="7.76193" gradientUnits="userSpaceOnUse">
<stop stop-color="#E9E5FF"/>
<stop offset="1" stop-color="#E4F9F6"/>
</linearGradient>
<linearGradient id="paint2_linear_27_580" x1="13.6823" y1="13.7613" x2="20.3525" y2="16.9981" gradientUnits="userSpaceOnUse">
<stop stop-color="#E9E5FF"/>
<stop offset="1" stop-color="#E4F9F6"/>
</linearGradient>
<linearGradient id="paint3_linear_27_580" x1="4.68229" y1="13.7613" x2="11.3525" y2="16.9981" gradientUnits="userSpaceOnUse">
<stop stop-color="#E9E5FF"/>
<stop offset="1" stop-color="#E4F9F6"/>
</linearGradient>
<linearGradient id="paint4_linear_27_580" x1="1.85625" y1="12.9602" x2="2.12383" y2="15.765" gradientUnits="userSpaceOnUse">
<stop stop-color="#E9E5FF"/>
<stop offset="1" stop-color="#E4F9F6"/>
</linearGradient>
</defs>
</svg>
