<svg width="24" height="25" viewBox="0 0 24 25" fill="none" xmlns="http://www.w3.org/2000/svg">
<path d="M12 13C11.4606 13 10.9333 13.1584 10.4848 13.455C10.0363 13.7517 9.68675 14.1734 9.48033 14.6668C9.27391 15.1601 9.2199 15.703 9.32513 16.2267C9.43036 16.7505 9.69011 17.2316 10.0715 17.6092C10.4529 17.9868 10.9389 18.2439 11.4679 18.3481C11.997 18.4523 12.5453 18.3988 13.0437 18.1945C13.542 17.9901 13.968 17.6441 14.2676 17.2C14.5673 16.756 14.7273 16.234 14.7273 15.7C14.7273 14.9839 14.4399 14.2972 13.9285 13.7908C13.417 13.2845 12.7233 13 12 13ZM12 16.6C11.8202 16.6 11.6444 16.5472 11.4949 16.4483C11.3454 16.3494 11.2289 16.2089 11.1601 16.0444C11.0913 15.88 11.0733 15.699 11.1084 15.5244C11.1435 15.3498 11.23 15.1895 11.3572 15.0636C11.4843 14.9377 11.6463 14.852 11.8226 14.8173C11.999 14.7826 12.1818 14.8004 12.3479 14.8685C12.514 14.9366 12.656 15.052 12.7559 15.2C12.8558 15.348 12.9091 15.522 12.9091 15.7C12.9091 15.9387 12.8133 16.1676 12.6428 16.3364C12.4723 16.5052 12.2411 16.6 12 16.6ZM11.3545 10.939C11.441 11.0209 11.543 11.0852 11.6545 11.128C11.7634 11.1756 11.881 11.2002 12 11.2002C12.119 11.2002 12.2366 11.1756 12.3455 11.128C12.457 11.0852 12.559 11.0209 12.6455 10.939L14.7273 8.914C14.9033 8.73975 15.0022 8.50342 15.0022 8.257C15.0022 8.01058 14.9033 7.77425 14.7273 7.6C14.5513 7.42575 14.3125 7.32786 14.0636 7.32786C13.8147 7.32786 13.576 7.42575 13.4 7.6L12.9091 8.131V4.9C12.9091 4.66131 12.8133 4.43239 12.6428 4.2636C12.4723 4.09482 12.2411 4 12 4C11.7589 4 11.5277 4.09482 11.3572 4.2636C11.1867 4.43239 11.0909 4.66131 11.0909 4.9V8.131L10.6 7.6C10.424 7.42575 10.1853 7.32786 9.93636 7.32786C9.68745 7.32786 9.44873 7.42575 9.27273 7.6C9.09672 7.77425 8.99784 8.01058 8.99784 8.257C8.99784 8.50342 9.09672 8.73975 9.27273 8.914L11.3545 10.939ZM18.3636 15.7C18.3636 15.522 18.3103 15.348 18.2104 15.2C18.1105 15.052 17.9686 14.9366 17.8024 14.8685C17.6363 14.8004 17.4535 14.7826 17.2772 14.8173C17.1008 14.852 16.9389 14.9377 16.8117 15.0636C16.6846 15.1895 16.598 15.3498 16.5629 15.5244C16.5278 15.699 16.5458 15.88 16.6147 16.0444C16.6835 16.2089 16.8 16.3494 16.9495 16.4483C17.099 16.5472 17.2747 16.6 17.4545 16.6C17.6957 16.6 17.9269 16.5052 18.0974 16.3364C18.2679 16.1676 18.3636 15.9387 18.3636 15.7ZM19.2727 9.4H16.5455C16.3043 9.4 16.0731 9.49482 15.9026 9.6636C15.7321 9.83239 15.6364 10.0613 15.6364 10.3C15.6364 10.5387 15.7321 10.7676 15.9026 10.9364C16.0731 11.1052 16.3043 11.2 16.5455 11.2H19.2727C19.5138 11.2 19.7451 11.2948 19.9156 11.4636C20.086 11.6324 20.1818 11.8613 20.1818 12.1V19.3C20.1818 19.5387 20.086 19.7676 19.9156 19.9364C19.7451 20.1052 19.5138 20.2 19.2727 20.2H4.72727C4.48617 20.2 4.25494 20.1052 4.08445 19.9364C3.91396 19.7676 3.81818 19.5387 3.81818 19.3V12.1C3.81818 11.8613 3.91396 11.6324 4.08445 11.4636C4.25494 11.2948 4.48617 11.2 4.72727 11.2H7.45455C7.69565 11.2 7.92688 11.1052 8.09737 10.9364C8.26786 10.7676 8.36364 10.5387 8.36364 10.3C8.36364 10.0613 8.26786 9.83239 8.09737 9.6636C7.92688 9.49482 7.69565 9.4 7.45455 9.4H4.72727C4.00396 9.4 3.31026 9.68446 2.7988 10.1908C2.28734 10.6972 2 11.3839 2 12.1V19.3C2 20.0161 2.28734 20.7028 2.7988 21.2092C3.31026 21.7155 4.00396 22 4.72727 22H19.2727C19.996 22 20.6897 21.7155 21.2012 21.2092C21.7127 20.7028 22 20.0161 22 19.3V12.1C22 11.3839 21.7127 10.6972 21.2012 10.1908C20.6897 9.68446 19.996 9.4 19.2727 9.4ZM5.63636 15.7C5.63636 15.878 5.68968 16.052 5.78957 16.2C5.88947 16.348 6.03145 16.4634 6.19756 16.5315C6.36368 16.5996 6.54646 16.6174 6.72281 16.5827C6.89916 16.548 7.06114 16.4623 7.18828 16.3364C7.31542 16.2105 7.402 16.0502 7.43708 15.8756C7.47216 15.701 7.45415 15.52 7.38535 15.3556C7.31654 15.1911 7.20002 15.0506 7.05052 14.9517C6.90102 14.8528 6.72526 14.8 6.54545 14.8C6.30435 14.8 6.07312 14.8948 5.90263 15.0636C5.73214 15.2324 5.63636 15.4613 5.63636 15.7Z" fill="#403E51"/>
</svg>
