<svg width="10" height="10" viewBox="0 0 10 10" fill="none" xmlns="http://www.w3.org/2000/svg">
<path d="M9.16354 8.3339L2.8407 8.3339L9.75501 1.42792C9.91187 1.27106 10 1.0583 10 0.836458C10 0.614615 9.91187 0.401859 9.75501 0.244993C9.59814 0.0881266 9.38538 0 9.16354 0C8.9417 0 8.72894 0.0881266 8.57208 0.244993L1.6661 7.1593L1.6661 0.836458C1.6661 0.61552 1.57833 0.40363 1.4221 0.247403C1.26588 0.0911762 1.05399 0.00340862 0.833049 0.00340862C0.612111 0.00340862 0.400222 0.0911762 0.243995 0.247403C0.0877676 0.40363 0 0.61552 0 0.836458L0 9.16695C0.00131621 9.27581 0.0239576 9.38336 0.0666439 9.48351C0.151177 9.68706 0.312935 9.84882 0.51649 9.93336C0.616642 9.97604 0.724189 9.99868 0.833049 10L9.16354 10C9.38448 10 9.59637 9.91223 9.7526 9.75601C9.90882 9.59978 9.99659 9.38789 9.99659 9.16695C9.99659 8.94601 9.90882 8.73412 9.7526 8.5779C9.59637 8.42167 9.38448 8.3339 9.16354 8.3339Z" fill="#27D624"/>
</svg>
