<svg width="18" height="18" viewBox="0 0 18 18" fill="none" xmlns="http://www.w3.org/2000/svg">
<path d="M9.84374 3.5248L14.7937 8.47483C14.8687 8.54983 14.922 8.63108 14.9535 8.71858C14.985 8.80608 15.0005 8.89983 15 8.99983C15 9.09983 14.9842 9.19358 14.9527 9.28108C14.9212 9.36858 14.8682 9.44983 14.7937 9.52483L9.84374 14.4748C9.70624 14.6123 9.53424 14.6841 9.32774 14.6901C9.12124 14.6961 8.94324 14.6243 8.79374 14.4748C8.64374 14.3373 8.56549 14.1653 8.55899 13.9588C8.55249 13.7523 8.62449 13.5743 8.77499 13.4248L12.45 9.74983L4.0687 9.74983C3.8562 9.74983 3.678 9.67783 3.534 9.53383C3.39 9.38983 3.3182 9.21183 3.3187 8.99983C3.3187 8.78733 3.3905 8.60908 3.534 8.46508C3.6775 8.32108 3.8557 8.24933 4.0687 8.24983L12.45 8.24983L8.77499 4.5748C8.63749 4.4373 8.56549 4.2623 8.55899 4.0498C8.55249 3.8373 8.62449 3.6623 8.77499 3.5248C8.91249 3.3748 9.08749 3.2998 9.29999 3.2998C9.51249 3.2998 9.69374 3.3748 9.84374 3.5248Z" fill="#A9B9F2"/>
</svg>
