<svg width="63" height="63" viewBox="0 0 63 63" fill="none" xmlns="http://www.w3.org/2000/svg">
<path fill-rule="evenodd" clip-rule="evenodd" d="M15 0C6.71573 0 0 6.71573 0 15V48C0 56.2843 6.71573 63 15 63H48C56.2843 63 63 56.2843 63 48V15C63 6.71573 56.2843 0 48 0H15ZM31.1153 17.272L30.7013 17.227C29.9025 17.146 28.9417 16.7027 27.9495 16.039C26.982 15.3887 26.0888 14.6035 25.4408 13.978C24.8873 13.4447 24.1425 13.4042 23.58 13.6292C23.0175 13.8565 22.5 14.419 22.5 15.2132V20.4197C21.1499 21.1233 19.9154 22.0293 18.8393 23.1062C17.6198 24.3437 16.956 25.894 16.6117 26.9425C16.4813 27.343 16.1865 27.5792 15.921 27.6242C14.5238 27.8582 13.5 29.0687 13.5 30.4862V33.8747C13.4997 34.582 13.7499 35.2666 14.2062 35.807C14.6626 36.3474 15.2956 36.7086 15.993 36.8267C16.1625 36.867 16.3196 36.9482 16.4506 37.0631C16.5816 37.178 16.6825 37.3231 16.7445 37.486C17.3948 38.9811 18.3111 40.3458 19.449 41.5135C20.5942 42.6745 21.4988 43.3742 22.1467 43.795C22.2627 43.8705 22.3805 43.9433 22.5 44.0132V45.2237C22.5 46.1188 22.8556 46.9773 23.4885 47.6102C24.1214 48.2431 24.9799 48.5987 25.875 48.5987H28.989C30.375 48.5987 31.5 47.4737 31.5 46.0855C31.4997 46.051 31.5062 46.0168 31.5192 45.9849C31.5322 45.953 31.5514 45.9239 31.5756 45.8995C31.5999 45.875 31.6288 45.8556 31.6606 45.8423C31.6924 45.829 31.7265 45.8222 31.761 45.8222H35.739C35.7735 45.8222 35.8076 45.829 35.8394 45.8423C35.8712 45.8556 35.9001 45.875 35.9244 45.8995C35.9486 45.9239 35.9678 45.953 35.9808 45.9849C35.9938 46.0168 36.0003 46.051 36 46.0855C36 46.7518 36.2644 47.391 36.7352 47.8626C37.206 48.3342 37.8446 48.5998 38.511 48.601H41.625C42.5201 48.601 43.3786 48.2454 44.0115 47.6124C44.6444 46.9795 45 46.1211 45 45.226V42.031C45.7812 41.3822 46.4701 40.6298 47.0475 39.7945C48.2962 38.0012 49.5 35.236 49.5 31.2917C49.5 29.6582 49.2728 28.1957 48.8408 26.8907C48.1233 28.5606 46.9691 30.0063 45.4995 31.0757C43.6792 32.3987 41.5013 32.1625 39.9713 31.528L33.1245 28.693C31.5945 28.063 29.8867 26.6882 29.5357 24.463C29.1428 21.9527 29.7065 19.3864 31.1153 17.272ZM25.3807 28.9795C25.0643 29.2959 24.6351 29.4737 24.1875 29.4737C23.7399 29.4737 23.3107 29.2959 22.9943 28.9795C22.6778 28.663 22.5 28.2338 22.5 27.7862C22.5 27.3387 22.6778 26.9094 22.9943 26.593C23.3107 26.2765 23.7399 26.0987 24.1875 26.0987C24.6351 26.0987 25.0643 26.2765 25.3807 26.593C25.6972 26.9094 25.875 27.3387 25.875 27.7862C25.875 28.2338 25.6972 28.663 25.3807 28.9795ZM47.3445 23.941L47.3355 23.9275C47.4905 22.7995 47.399 21.6536 47.0675 20.5644C46.7359 19.4753 46.1721 18.4709 45.4149 17.6206C44.6578 16.7704 43.7252 16.0944 42.6816 15.6393C41.638 15.1842 40.5081 14.9608 39.3698 14.9845C38.2315 15.0082 37.1119 15.2785 36.0881 15.7766C35.0643 16.2748 34.1607 16.989 33.4396 17.8701C32.7185 18.7512 32.1971 19.7781 31.9111 20.8802C31.6252 21.9823 31.5817 23.1332 31.7835 24.2537C32.0198 25.3607 32.9287 26.1775 33.9862 26.6162L40.8307 29.4512C41.9333 29.908 43.2113 29.9575 44.1765 29.2555C45.0354 28.6288 45.7589 27.835 46.3033 26.9218C46.8477 26.0085 47.2019 24.9946 47.3445 23.941Z" fill="#403E51"/>
</svg>
