<svg width="29" height="29" viewBox="0 0 29 29" fill="none" xmlns="http://www.w3.org/2000/svg">
<path d="M22.8856 20.867L29 26.98L26.98 29L20.867 22.8856C18.5925 24.709 15.7634 25.7007 12.8483 25.6966C5.75603 25.6966 0 19.9405 0 12.8483C0 5.75603 5.75603 0 12.8483 0C19.9405 0 25.6966 5.75603 25.6966 12.8483C25.7007 15.7634 24.709 18.5925 22.8856 20.867ZM20.0219 19.8078C21.8337 17.9446 22.8455 15.4471 22.8414 12.8483C22.8414 7.32638 18.3688 2.85517 12.8483 2.85517C7.32638 2.85517 2.85517 7.32638 2.85517 12.8483C2.85517 18.3688 7.32638 22.8414 12.8483 22.8414C15.4471 22.8455 17.9446 21.8337 19.8078 20.0219L20.0219 19.8078Z" fill="#9897BD" fill-opacity="0.44"/>
</svg>
