<svg width="33" height="33" viewBox="0 0 33 33" fill="none" xmlns="http://www.w3.org/2000/svg">
<path d="M14.225 19.425L10.7312 15.9312C10.4333 15.6333 10.0542 15.4844 9.59375 15.4844C9.13333 15.4844 8.75417 15.6333 8.45625 15.9312C8.15833 16.2292 8.00938 16.6083 8.00938 17.0688C8.00938 17.5292 8.15833 17.9083 8.45625 18.2063L13.0875 22.8375C13.4125 23.1625 13.7917 23.325 14.225 23.325C14.6583 23.325 15.0375 23.1625 15.3625 22.8375L24.5438 13.6562C24.8417 13.3583 24.9906 12.9792 24.9906 12.5188C24.9906 12.0583 24.8417 11.6792 24.5438 11.3813C24.2458 11.0833 23.8667 10.9344 23.4062 10.9344C22.9458 10.9344 22.5667 11.0833 22.2688 11.3813L14.225 19.425ZM16.5 32.75C14.2521 32.75 12.1396 32.3232 10.1625 31.4695C8.18542 30.6158 6.46563 29.4583 5.00313 27.9969C3.54063 26.5344 2.38308 24.8146 1.5305 22.8375C0.677917 20.8604 0.251083 18.7479 0.25 16.5C0.25 14.2521 0.676833 12.1396 1.5305 10.1625C2.38417 8.18542 3.54171 6.46563 5.00313 5.00313C6.46563 3.54063 8.18542 2.38308 10.1625 1.5305C12.1396 0.677917 14.2521 0.251083 16.5 0.25C18.7479 0.25 20.8604 0.676833 22.8375 1.5305C24.8146 2.38417 26.5344 3.54171 27.9969 5.00313C29.4594 6.46563 30.6175 8.18542 31.4711 10.1625C32.3248 12.1396 32.7511 14.2521 32.75 16.5C32.75 18.7479 32.3232 20.8604 31.4695 22.8375C30.6158 24.8146 29.4583 26.5344 27.9969 27.9969C26.5344 29.4594 24.8146 30.6175 22.8375 31.4711C20.8604 32.3248 18.7479 32.7511 16.5 32.75Z" fill="#69CE6D"/>
</svg>
