<svg width="10" height="10" viewBox="0 0 10 10" fill="none" xmlns="http://www.w3.org/2000/svg">
<path d="M0.836459 1.6661L7.1593 1.6661L0.244993 8.57208C0.0881272 8.72894 9.25196e-08 8.9417 7.31255e-08 9.16354C5.37314e-08 9.38538 0.0881272 9.59814 0.244993 9.75501C0.40186 9.91187 0.614615 10 0.836458 10C1.0583 10 1.27106 9.91187 1.42792 9.75501L8.3339 2.8407L8.3339 9.16354C8.3339 9.38448 8.42167 9.59637 8.5779 9.7526C8.73412 9.90882 8.94601 9.99659 9.16695 9.99659C9.38789 9.99659 9.59978 9.90882 9.75601 9.7526C9.91223 9.59637 10 9.38448 10 9.16354L10 0.83305C9.99868 0.724189 9.97604 0.616643 9.93336 0.516492C9.84882 0.312937 9.68707 0.151177 9.48351 0.0666437C9.38336 0.0239582 9.27581 0.00131601 9.16695 -7.28275e-08L0.836459 -8.01102e-07C0.61552 -8.20417e-07 0.40363 0.0877658 0.247403 0.243993C0.0911759 0.40022 0.00340925 0.61211 0.00340923 0.833049C0.00340921 1.05399 0.0911758 1.26588 0.247403 1.4221C0.40363 1.57833 0.61552 1.6661 0.836459 1.6661Z" fill="#FF7474"/>
</svg>
