<svg width="24" height="24" viewBox="0 0 24 24" fill="none" xmlns="http://www.w3.org/2000/svg">
<path fill-rule="evenodd" clip-rule="evenodd" d="M9.25002 9C9.25002 8.27065 9.53975 7.57118 10.0555 7.05546C10.5712 6.53973 11.2707 6.25 12 6.25C12.7294 6.25 13.4288 6.53973 13.9446 7.05546C14.4603 7.57118 14.75 8.27065 14.75 9C14.75 9.72935 14.4603 10.4288 13.9446 10.9445C13.4288 11.4603 12.7294 11.75 12 11.75C11.2707 11.75 10.5712 11.4603 10.0555 10.9445C9.53975 10.4288 9.25002 9.72935 9.25002 9ZM12 7.75C11.6685 7.75 11.3506 7.8817 11.1161 8.11612C10.8817 8.35054 10.75 8.66848 10.75 9C10.75 9.33152 10.8817 9.64946 11.1161 9.88388C11.3506 10.1183 11.6685 10.25 12 10.25C12.3315 10.25 12.6495 10.1183 12.8839 9.88388C13.1183 9.64946 13.25 9.33152 13.25 9C13.25 8.66848 13.1183 8.35054 12.8839 8.11612C12.6495 7.8817 12.3315 7.75 12 7.75ZM12 12.25C10.804 12.25 9.68502 12.49 8.83602 12.915C8.03302 13.317 7.25001 14.011 7.25001 15V15.063C7.24801 15.573 7.24602 16.433 8.06002 17.022C8.43802 17.295 8.93702 17.47 9.55502 17.581C10.178 17.693 10.977 17.75 12 17.75C13.023 17.75 13.822 17.693 14.445 17.581C15.063 17.47 15.562 17.295 15.94 17.021C16.754 16.432 16.752 15.573 16.75 15.062V15C16.75 14.01 15.967 13.317 15.164 12.915C14.315 12.491 13.196 12.25 12 12.25ZM8.75001 15C8.75001 14.885 8.86301 14.579 9.50701 14.257C10.107 13.957 10.987 13.75 12 13.75C13.013 13.75 13.894 13.957 14.493 14.257C15.137 14.579 15.25 14.885 15.25 15C15.25 15.604 15.211 15.697 15.06 15.807C14.938 15.895 14.687 16.013 14.18 16.105C13.678 16.195 12.977 16.25 12 16.25C11.023 16.25 10.322 16.195 9.82001 16.105C9.31301 16.013 9.06201 15.895 8.94001 15.807C8.78801 15.697 8.75001 15.604 8.75001 15Z" fill="#F1F0FF"/>
<path fill-rule="evenodd" clip-rule="evenodd" d="M8.723 2.051C10.167 1.557 11.063 1.25 12 1.25C12.938 1.25 13.833 1.557 15.277 2.051L16.004 2.301C17.485 2.807 18.629 3.199 19.447 3.531C19.859 3.698 20.214 3.861 20.499 4.026C20.774 4.186 21.049 4.385 21.236 4.652C21.421 4.915 21.517 5.239 21.577 5.552C21.64 5.876 21.677 6.265 21.702 6.712C21.75 7.598 21.75 8.814 21.75 10.39V11.991C21.75 18.092 17.142 21.017 14.402 22.215L14.375 22.226C14.035 22.375 13.715 22.514 13.348 22.608C12.961 22.708 12.549 22.75 12 22.75C11.45 22.75 11.04 22.708 10.652 22.608C10.285 22.514 9.965 22.375 9.625 22.226L9.598 22.215C6.858 21.017 2.25 18.092 2.25 11.99V10.39C2.25 8.814 2.25 7.598 2.298 6.711C2.323 6.265 2.36 5.876 2.423 5.551C2.483 5.239 2.579 4.915 2.763 4.651C2.951 4.385 3.226 4.186 3.501 4.026C3.786 3.861 4.141 3.698 4.553 3.531C5.371 3.199 6.515 2.807 7.996 2.301L8.723 2.051ZM12 2.75C11.342 2.75 10.695 2.962 9.08 3.514L8.508 3.71C6.995 4.228 5.892 4.606 5.118 4.92C4.82131 5.03525 4.53267 5.17022 4.254 5.324C4.18125 5.365 4.11171 5.41146 4.046 5.463C4.0261 5.47786 4.00768 5.4946 3.991 5.513C3.97792 5.53655 3.9672 5.56134 3.959 5.587C3.939 5.643 3.917 5.723 3.896 5.835C3.842 6.15184 3.8086 6.47184 3.796 6.793C3.75 7.634 3.75 8.808 3.75 10.417V11.991C3.75 17.166 7.62 19.714 10.199 20.84C10.57 21.002 10.785 21.094 11.024 21.155C11.252 21.214 11.53 21.25 12 21.25C12.47 21.25 12.748 21.214 12.976 21.155C13.216 21.095 13.43 21.002 13.801 20.84C16.381 19.713 20.25 17.166 20.25 11.991V10.417C20.25 8.808 20.25 7.634 20.204 6.793C20.1914 6.47184 20.158 6.15183 20.104 5.835C20.0891 5.7509 20.0681 5.66801 20.041 5.587C20.0328 5.56134 20.0221 5.53655 20.009 5.513C19.9923 5.4946 19.9739 5.47785 19.954 5.463C19.8883 5.41109 19.8188 5.36429 19.746 5.323C19.4673 5.1699 19.1786 5.0356 18.882 4.921C18.108 4.606 17.005 4.228 15.492 3.711L14.919 3.514C13.305 2.962 12.658 2.75 12 2.75Z" fill="#F1F0FF"/>
</svg>
