<svg width="42" height="14" viewBox="0 0 42 14" fill="none" xmlns="http://www.w3.org/2000/svg">
<path d="M30.5287 1.08718C29.5513 0.733838 28.5192 0.555671 27.4798 0.560871C24.1238 0.560871 21.7521 2.25662 21.7376 4.68343C21.7101 6.46712 23.4189 7.4725 24.7104 8.07362C26.0374 8.68919 26.481 9.07244 26.4744 9.61843C26.4679 10.4597 25.4139 10.8351 24.444 10.8351C23.0961 10.8351 22.365 10.6514 21.2376 10.1789L20.8189 9.98068L20.3411 12.7842C21.1614 13.1189 22.6314 13.4129 24.1487 13.4404C27.7239 13.4404 30.0549 11.7591 30.0812 9.16693C30.1088 7.7455 29.1939 6.66662 27.2449 5.77675C26.0689 5.20318 25.3326 4.81206 25.3326 4.22406C25.3326 3.70431 25.9613 3.15831 27.2738 3.15831C28.1448 3.13649 29.0107 3.29698 29.8161 3.6295L30.1376 3.77256L30.6088 1.07275L30.5287 1.08718ZM39.2529 0.793184H36.6279C35.8076 0.793184 35.1986 1.01237 34.8364 1.82612L29.7911 13.2619H33.3598L34.0791 11.389L38.4326 11.3956C38.5416 11.8326 38.8487 13.2606 38.8487 13.2606H42L39.2529 0.793184ZM16.905 0.690809H20.3031L18.1768 13.1648H14.7788L16.905 0.684246V0.690809ZM8.26481 7.56043L8.61263 9.29687L11.9411 0.793184H15.5439L10.1837 13.2409H6.59662L3.65663 2.70025C3.6341 2.61269 3.59397 2.53064 3.53868 2.4591C3.4834 2.38757 3.41411 2.32805 3.33506 2.28418C2.279 1.73491 1.15871 1.31916 0 1.0465L0.0406875 0.785309H5.523C6.26194 0.812872 6.86306 1.0465 7.06781 1.83925L8.26481 7.567V7.56043ZM35.0477 8.83881L36.4087 5.34625C36.3877 5.37906 36.6883 4.62831 36.8589 4.15581L37.0913 5.22812L37.8787 8.83093H35.0477V8.83881Z" fill="#403E51"/>
</svg>
